<svg width="17" height="18" viewBox="0 0 17 18" fill="none" xmlns="http://www.w3.org/2000/svg">
<path fill-rule="evenodd" clip-rule="evenodd" d="M8.46795 1.63636C7.11234 1.63636 6.0134 2.7353 6.0134 4.09091C6.0134 5.44652 7.11234 6.54545 8.46795 6.54545C9.82356 6.54545 10.9225 5.44652 10.9225 4.09091C10.9225 2.7353 9.82356 1.63636 8.46795 1.63636ZM4.37704 4.09091C4.37704 1.83156 6.2086 0 8.46795 0C10.7273 0 12.5589 1.83156 12.5589 4.09091C12.5589 6.35026 10.7273 8.18182 8.46795 8.18182C6.2086 8.18182 4.37704 6.35026 4.37704 4.09091Z" fill="#989898"/>
<path fill-rule="evenodd" clip-rule="evenodd" d="M0.286133 17.1818C0.286133 12.6632 3.94931 9 8.46795 9C12.9866 9 16.6498 12.6632 16.6498 17.1818C16.6498 17.6337 16.2835 18 15.8316 18C15.3797 18 15.0134 17.6337 15.0134 17.1818C15.0134 13.5669 12.0829 10.6364 8.46795 10.6364C4.85305 10.6364 1.9225 13.5669 1.9225 17.1818C1.9225 17.6337 1.55618 18 1.10431 18C0.652445 18 0.286133 17.6337 0.286133 17.1818Z" fill="#989898"/>
<path fill-rule="evenodd" clip-rule="evenodd" d="M8.46795 9C8.82714 9 9.14432 9.23426 9.24995 9.57757L10.8863 14.8957C10.966 15.1546 10.9124 15.436 10.7432 15.6475L9.10684 17.6929C8.95157 17.887 8.7165 18 8.46795 18C8.2194 18 7.98433 17.887 7.82906 17.6929L6.19269 15.6475C6.02353 15.436 5.96995 15.1546 6.04959 14.8957L7.68595 9.57757C7.79158 9.23426 8.10876 9 8.46795 9ZM7.74089 14.9633L8.46795 15.8721L9.19501 14.9633L8.46795 12.6003L7.74089 14.9633Z" fill="#989898"/>
</svg>
