<svg width="18" height="14" viewBox="0 0 18 14" fill="none" xmlns="http://www.w3.org/2000/svg">
<path d="M9 4.42843C8.34901 4.42843 7.72469 4.69935 7.26437 5.18159C6.80406 5.66382 6.54545 6.31788 6.54545 6.99986C6.54545 7.68185 6.80406 8.3359 7.26437 8.81814C7.72469 9.30037 8.34901 9.57129 9 9.57129C9.65099 9.57129 10.2753 9.30037 10.7356 8.81814C11.1959 8.3359 11.4545 7.68185 11.4545 6.99986C11.4545 6.31788 11.1959 5.66382 10.7356 5.18159C10.2753 4.69935 9.65099 4.42843 9 4.42843ZM9 11.2856C7.91502 11.2856 6.87449 10.834 6.10729 10.0303C5.3401 9.22659 4.90909 8.1365 4.90909 6.99986C4.90909 5.86322 5.3401 4.77313 6.10729 3.9694C6.87449 3.16568 7.91502 2.71415 9 2.71415C10.085 2.71415 11.1255 3.16568 11.8927 3.9694C12.6599 4.77313 13.0909 5.86322 13.0909 6.99986C13.0909 8.1365 12.6599 9.22659 11.8927 10.0303C11.1255 10.834 10.085 11.2856 9 11.2856ZM9 0.571289C4.90909 0.571289 1.41545 3.237 0 6.99986C1.41545 10.7627 4.90909 13.4284 9 13.4284C13.0909 13.4284 16.5845 10.7627 18 6.99986C16.5845 3.237 13.0909 0.571289 9 0.571289Z" fill="#989898"/>
</svg>
