<svg width="14" height="14" viewBox="0 0 14 14" fill="none" xmlns="http://www.w3.org/2000/svg">
<path d="M12.6645 1.33164C11.8059 0.473047 10.6656 0 9.44883 0C8.23203 0 7.08906 0.473047 6.23047 1.33164C5.63711 1.925 5.22148 2.67148 5.02461 3.48906C4.83594 4.28203 4.86328 5.11055 5.10117 5.88711L0.146484 10.8418C0.0480469 10.9375 -0.00390625 11.066 -0.00390625 11.2027V13.4887C-0.00390625 13.7703 0.225781 14 0.507422 14H2.79336C2.93008 14 3.05859 13.948 3.1543 13.8496L3.72578 13.2781C3.83789 13.166 3.88984 13.0129 3.87344 12.857L3.81602 12.3539L4.55703 12.2828C4.80039 12.2609 4.99453 12.0668 5.01914 11.8207L5.09023 11.0797L5.59336 11.1371C5.6125 11.1371 5.63164 11.1398 5.65352 11.1398C5.7793 11.1398 5.89961 11.0934 5.99258 11.0113C6.10195 10.9156 6.16484 10.7762 6.16484 10.6285V9.9832H6.79648C6.9332 9.9832 7.05898 9.93125 7.15742 9.83555L8.11445 8.88945C8.54922 9.02344 9.00039 9.0918 9.45703 9.0918C10.6738 9.0918 11.8141 8.61875 12.6727 7.76289C14.4473 5.98828 14.4473 3.10078 12.6727 1.32617L12.6645 1.33164ZM11.9426 7.04375C11.2781 7.7082 10.3922 8.07461 9.45156 8.07461C8.51094 8.07461 8.57656 7.99258 8.16094 7.83125C8.10078 7.80664 8.03789 7.7957 7.975 7.7957C7.83828 7.7957 7.7125 7.84766 7.61406 7.94336L6.58047 8.96602H5.64805C5.36641 8.96602 5.13672 9.1957 5.13672 9.47734V10.0598L4.68281 10.0078C4.66367 10.0078 4.64453 10.0051 4.62266 10.0051C4.50508 10.0051 4.39023 10.0461 4.3 10.1199C4.19336 10.2047 4.125 10.3332 4.11133 10.4699L4.03203 11.3094L3.19258 11.3887C3.05586 11.4023 2.93008 11.4707 2.84258 11.5773C2.75781 11.684 2.7168 11.8234 2.7332 11.9574L2.82344 12.734L2.57734 12.9801H1.01602V11.4187L6.04727 6.3875C6.19219 6.24258 6.23594 6.0293 6.16211 5.84063C5.65078 4.53359 5.95977 3.04883 6.94961 2.05898C7.61406 1.39453 8.5 1.02812 9.44336 1.02812C10.3867 1.02812 11.2727 1.39453 11.9371 2.05898C13.3125 3.43438 13.3125 5.67109 11.9371 7.04648L11.9426 7.04375ZM10.5891 2.08633C10.2363 2.08633 9.90547 2.22305 9.65664 2.47187C9.40781 2.7207 9.27109 3.05156 9.27109 3.4043C9.27109 3.75703 9.40781 4.08789 9.65664 4.33672C9.90547 4.58555 10.2363 4.72227 10.5891 4.72227C10.9418 4.72227 11.2727 4.58555 11.5215 4.33672C11.7703 4.08789 11.907 3.75703 11.907 3.4043C11.907 3.05156 11.7703 2.7207 11.5215 2.47187C11.2727 2.22305 10.9418 2.08633 10.5891 2.08633ZM10.7996 3.61484C10.7449 3.66953 10.6684 3.70234 10.5891 3.70234C10.5098 3.70234 10.4359 3.67227 10.3785 3.61484C10.2637 3.5 10.2637 3.31133 10.3785 3.19648C10.4332 3.1418 10.5098 3.10898 10.5891 3.10898C10.6684 3.10898 10.7422 3.13906 10.7996 3.19648C10.9145 3.31133 10.9145 3.5 10.7996 3.61484Z" fill="#989898"/>
</svg>
