<svg width="40" height="40" viewBox="0 0 40 40" fill="none" xmlns="http://www.w3.org/2000/svg">
<rect x="0.5" y="0.5" width="39" height="39" rx="19.5" fill="#484848"/>
<rect x="0.5" y="0.5" width="39" height="39" rx="19.5" stroke="white"/>
<g clip-path="url(#clip0_10511_14019)">
<path d="M21.7237 27.5738C23.28 27.5738 24.8014 27.1123 26.0954 26.2476C27.3894 25.383 28.398 24.1541 28.9935 22.7162C29.5891 21.2784 29.7449 19.6963 29.4413 18.1699C29.1377 16.6435 28.3883 15.2414 27.2878 14.1409C26.1873 13.0404 24.7852 12.291 23.2588 11.9874C21.7325 11.6838 20.1503 11.8396 18.7125 12.4352C17.2746 13.0308 16.0457 14.0393 15.1811 15.3333C14.3164 16.6273 13.8549 18.1487 13.8549 19.705V23.7705L11.4943 21.4099L10.5763 22.3279L14.5107 26.2623L18.4451 22.3279L17.527 21.4099L15.1664 23.7705V19.705C15.1664 18.4081 15.551 17.1403 16.2715 16.0619C16.992 14.9836 18.0162 14.1431 19.2143 13.6468C20.4125 13.1505 21.731 13.0207 23.003 13.2737C24.275 13.5267 25.4434 14.1512 26.3604 15.0683C27.2775 15.9853 27.902 17.1537 28.155 18.4257C28.4081 19.6977 28.2782 21.0162 27.7819 22.2144C27.2856 23.4126 26.4451 24.4367 25.3668 25.1572C24.2884 25.8777 23.0206 26.2623 21.7237 26.2623V27.5738Z" fill="white"/>
<path fill-rule="evenodd" clip-rule="evenodd" d="M18.5565 12.0587C20.0688 11.4323 21.7329 11.2684 23.3383 11.5877C24.9438 11.9071 26.4185 12.6953 27.5759 13.8528C28.7334 15.0102 29.5216 16.4849 29.841 18.0904C30.1603 19.6958 29.9964 21.3599 29.37 22.8722C28.7436 24.3845 27.6828 25.6771 26.3218 26.5865C24.9607 27.4959 23.3606 27.9813 21.7237 27.9813H21.3162V25.8548H21.7237C22.94 25.8548 24.1291 25.4941 25.1404 24.8184C26.1517 24.1426 26.94 23.1822 27.4054 22.0584C27.8709 20.9347 27.9927 19.6982 27.7554 18.5052C27.5181 17.3123 26.9324 16.2165 26.0723 15.3564C25.2122 14.4963 24.1164 13.9106 22.9235 13.6733C21.7305 13.436 20.494 13.5578 19.3703 14.0233C18.2465 14.4888 17.2861 15.277 16.6103 16.2883C15.9346 17.2997 15.5739 18.4887 15.5739 19.705V22.7868L17.527 20.8336L19.0213 22.3279L14.5107 26.8386L10 22.3279L11.4943 20.8336L13.4474 22.7868V19.705C13.4474 18.0681 13.9328 16.468 14.8423 15.1069C15.7517 13.7459 17.0442 12.6851 18.5565 12.0587ZM23.1793 12.3871C21.732 12.0992 20.2318 12.2469 18.8684 12.8117C17.505 13.3764 16.3397 14.3327 15.5199 15.5597C14.7 16.7867 14.2624 18.2293 14.2624 19.705V24.7543L11.4943 21.9862L11.1526 22.3279L14.5107 25.686L17.8688 22.3279L17.527 21.9862L14.7589 24.7543V19.705C14.7589 18.3275 15.1674 16.9809 15.9327 15.8355C16.698 14.6902 17.7858 13.7975 19.0584 13.2703C20.3311 12.7432 21.7314 12.6053 23.0825 12.874C24.4335 13.1427 25.6745 13.8061 26.6486 14.7801C27.6226 15.7542 28.286 16.9952 28.5547 18.3462C28.8234 19.6973 28.6855 21.0977 28.1584 22.3703C27.6312 23.643 26.7385 24.7307 25.5932 25.496C24.561 26.1857 23.3655 26.5855 22.1312 26.6579V27.1552C23.4638 27.0823 24.7552 26.653 25.869 25.9088C27.096 25.089 28.0523 23.9237 28.6171 22.5603C29.1818 21.1969 29.3295 19.6967 29.0416 18.2494C28.7538 16.802 28.0431 15.4725 26.9997 14.4291C25.9562 13.3856 24.6267 12.675 23.1793 12.3871Z" fill="white"/>
</g>
<defs>
<clipPath id="clip0_10511_14019">
<rect width="20" height="20" fill="white" transform="translate(10 10)"/>
</clipPath>
</defs>
</svg>
