<svg width="14" height="14" viewBox="0 0 14 14" fill="none" xmlns="http://www.w3.org/2000/svg">
<path d="M5.2 11.2C4.815 11.2 4.48553 11.063 4.2116 10.7891C3.93767 10.5152 3.80047 10.1855 3.8 9.8V1.4C3.8 1.015 3.9372 0.685533 4.2116 0.4116C4.486 0.137667 4.81547 0.000466667 5.2 0H11.5C11.885 0 12.2147 0.1372 12.4891 0.4116C12.7635 0.686 12.9005 1.01547 12.9 1.4V9.8C12.9 10.185 12.763 10.5147 12.4891 10.7891C12.2152 11.0635 11.8855 11.2005 11.5 11.2H5.2ZM5.2 9.8H11.5V1.4H5.2V9.8ZM2.4 14C2.015 14 1.68553 13.863 1.4116 13.5891C1.13767 13.3152 1.00047 12.9855 1 12.6V2.8H2.4V12.6H10.1V14H2.4Z" fill="#2F2F2F"/>
</svg>
