<svg width="14" height="14" viewBox="0 0 14 14" fill="none" xmlns="http://www.w3.org/2000/svg">
<path fill-rule="evenodd" clip-rule="evenodd" d="M7.62804 3.36191C7.87257 3.22426 8.06429 3.01013 8.17329 2.75295C8.28229 2.49577 8.30243 2.21001 8.23057 1.94028C8.15871 1.67055 7.99888 1.43201 7.77605 1.26191C7.55321 1.09181 7.2799 0.999717 6.99877 1C6.71764 1.00028 6.44452 1.09293 6.22203 1.26348C5.99954 1.43403 5.84021 1.67288 5.7689 1.94276C5.69759 2.21264 5.71831 2.49836 5.82784 2.75531C5.93736 3.01227 6.12953 3.22601 6.37434 3.36318L6.36797 3.37455C5.95113 4.23793 5.37201 5.47459 4.47787 5.93881C3.74347 6.31966 2.68959 6.12828 1.90683 5.98555C1.89427 5.8089 1.83208 5.63928 1.7273 5.49593C1.62253 5.35259 1.47937 5.24125 1.31407 5.17457C1.14877 5.10788 0.967945 5.08851 0.792113 5.11865C0.616281 5.1488 0.452481 5.22724 0.3193 5.3451C0.186118 5.46295 0.0888856 5.61549 0.0386352 5.78542C-0.0116151 5.95534 -0.0128718 6.13583 0.0350078 6.30643C0.0828874 6.47702 0.177986 6.63088 0.309515 6.75055C0.441043 6.87022 0.603734 6.95091 0.779129 6.98346L2.65523 11.7899C2.79436 12.1462 3.03881 12.4524 3.35647 12.6684C3.67414 12.8844 4.05018 13 4.43523 13H9.5646C9.94965 13 10.3257 12.8844 10.6434 12.6684C10.961 12.4524 11.2055 12.1462 11.3446 11.7899L13.2201 6.98346C13.3944 6.95127 13.5562 6.87154 13.6874 6.75322C13.8186 6.6349 13.914 6.48265 13.9629 6.31354C14.0119 6.14443 14.0124 5.96514 13.9644 5.79575C13.9164 5.62637 13.8219 5.47359 13.6914 5.35453C13.5608 5.23547 13.3995 5.15484 13.2254 5.12167C13.0513 5.0885 12.8713 5.1041 12.7056 5.16672C12.54 5.22935 12.3951 5.33652 12.2874 5.47624C12.1796 5.61595 12.1132 5.78269 12.0955 5.95776C11.2943 6.0607 10.2615 6.19208 9.52196 5.8087C8.64564 5.35395 8.05824 4.20256 7.62804 3.36191ZM7.01582 4.85689C7.50458 5.64385 8.0907 6.49082 8.93265 6.92851C9.77715 7.3662 10.8164 7.3441 11.7455 7.26515L10.1577 11.3332C10.1114 11.452 10.03 11.5541 9.9241 11.6261C9.81826 11.6982 9.69294 11.7367 9.5646 11.7368H4.43523C4.30689 11.7367 4.18157 11.6982 4.07573 11.6261C3.96988 11.5541 3.88844 11.452 3.84211 11.3332L2.27594 7.32073C3.19171 7.43694 4.22777 7.49379 5.06718 7.05799C5.94413 6.60324 6.53089 5.68617 7.01582 4.85689Z" fill="#2F2F2F"/>
</svg>
