<svg width="14" height="14" viewBox="0 0 14 14" fill="none" xmlns="http://www.w3.org/2000/svg">
<g clip-path="url(#clip0_10446_25608)">
<path d="M1.39825 14C1.01373 14 0.684677 13.8632 0.411086 13.5896C0.137495 13.316 0.000466084 12.9867 0 12.6017V2.81398C0 2.42946 0.137029 2.10041 0.411086 1.82682C0.685144 1.55323 1.0142 1.4162 1.39825 1.41573H7.63795L6.2397 2.81398H1.39825V12.6017H11.186V7.74282L12.5843 6.34457V12.6017C12.5843 12.9863 12.4475 13.3156 12.1739 13.5896C11.9003 13.8637 11.571 14.0005 11.186 14H1.39825ZM4.19476 9.80524V6.83396L10.6092 0.419476C10.7491 0.27965 10.9064 0.174782 11.0811 0.104869C11.2559 0.0349563 11.4307 0 11.6055 0C11.7919 0 11.9697 0.0349563 12.1389 0.104869C12.3081 0.174782 12.4624 0.27965 12.6017 0.419476L13.5805 1.41573C13.7087 1.55556 13.8077 1.71006 13.8777 1.87925C13.9476 2.04844 13.9825 2.22019 13.9825 2.39451C13.9825 2.56882 13.9506 2.74081 13.8867 2.91046C13.8229 3.08012 13.7208 3.23439 13.5805 3.37328L7.16604 9.80524H4.19476ZM5.59301 8.40699H6.57178L10.6267 4.35206L10.1373 3.86267L9.63046 3.37328L5.59301 7.41074V8.40699Z" fill="#2F2F2F"/>
</g>
<defs>
<clipPath id="clip0_10446_25608">
<rect width="14" height="14" fill="white"/>
</clipPath>
</defs>
</svg>
