<svg width="14" height="14" viewBox="0 0 14 14" fill="none" xmlns="http://www.w3.org/2000/svg">
<g clip-path="url(#clip0_10446_25600)">
<path d="M7.89097 11.1971C7.99258 11.2952 8.12862 11.3494 8.2698 11.3481C8.41098 11.3468 8.54601 11.2901 8.6458 11.1902C8.74559 11.0903 8.80215 10.9553 8.80331 10.8141C8.80447 10.6729 8.75013 10.5369 8.652 10.4354L7.89097 11.1971ZM3.56533 5.34728C3.51564 5.29588 3.4562 5.25488 3.39049 5.2267C3.32479 5.19851 3.25412 5.18369 3.18263 5.1831C3.11113 5.18251 3.04023 5.19617 2.97407 5.22328C2.90791 5.25038 2.84781 5.29039 2.79727 5.34097C2.74674 5.39155 2.70679 5.45169 2.67974 5.51788C2.6527 5.58407 2.63911 5.65498 2.63976 5.72647C2.64042 5.79797 2.65531 5.86862 2.68356 5.9343C2.71181 5.99998 2.75286 6.05938 2.80431 6.10903L3.56533 5.34728ZM11.2826 7.04308L7.04308 11.2826L7.8041 12.0436L12.0436 7.80482L11.2826 7.04308ZM2.71744 6.95764L6.95692 2.71744L6.1959 1.95713L1.95641 6.19518L2.71744 6.95764ZM2.71744 11.2826C2.10718 10.6723 1.68862 10.2516 1.41651 9.89477C1.15303 9.54944 1.07692 9.32759 1.07692 9.11939L0 9.1201C0 9.65785 0.224 10.1066 0.56 10.5481C0.886667 10.976 1.36769 11.4549 1.95641 12.0436L2.71744 11.2826ZM1.95641 6.19518C1.36769 6.7839 0.886667 7.26349 0.56 7.69138C0.224 8.13221 0 8.58164 0 9.1201L1.07692 9.11939C1.07692 8.91118 1.15303 8.68933 1.41651 8.34472C1.68933 7.98718 2.10718 7.5679 2.71744 6.95764L1.95641 6.19518ZM7.04308 11.2826C6.43282 11.8928 6.01282 12.3114 5.65528 12.5842C5.31067 12.847 5.0881 12.9231 4.8799 12.9231V14C5.41836 14 5.86779 13.776 6.30862 13.44C6.73651 13.1133 7.2161 12.6323 7.80482 12.0436L7.04308 11.2826ZM1.95641 12.0436C2.54513 12.6323 3.024 13.1133 3.45262 13.44C3.89344 13.776 4.34287 14.0007 4.88062 14.0007V12.9231C4.67241 12.9231 4.45056 12.847 4.10523 12.5835C3.74841 12.3107 3.32769 11.8928 2.71744 11.2826L1.95641 12.0436ZM11.2826 2.71744C11.8928 3.32769 12.3114 3.74841 12.5842 4.10523C12.847 4.45056 12.9231 4.67241 12.9231 4.88062H14C14 4.34287 13.776 3.89344 13.44 3.4519C13.1133 3.024 12.6323 2.54513 12.0436 1.95641L11.2826 2.71744ZM12.0436 7.80482C12.6323 7.2161 13.1133 6.73651 13.44 6.30862C13.776 5.8678 14 5.41836 14 4.8799H12.9231C12.9231 5.0881 12.847 5.31067 12.5835 5.65528C12.3107 6.01282 11.8928 6.43282 11.2826 7.04308L12.0436 7.80482ZM12.0436 1.95641C11.4549 1.36769 10.976 0.886667 10.5474 0.56C10.1066 0.224 9.65713 0 9.11939 0V1.07692C9.32759 1.07692 9.54944 1.15303 9.89477 1.41651C10.2516 1.68933 10.6723 2.10718 11.2826 2.71744L12.0436 1.95641ZM6.95692 2.71744C7.56718 2.10718 7.98718 1.68862 8.34472 1.41651C8.68933 1.15303 8.9119 1.07692 9.1201 1.07692V0C8.58164 0 8.13221 0.224 7.69139 0.56C7.26349 0.886667 6.7839 1.36769 6.19518 1.95641L6.95692 2.71744ZM8.65272 10.4347L3.56533 5.348L2.80431 6.10903L7.89097 11.1971L8.65272 10.4347Z" fill="#2F2F2F"/>
<path fill-rule="evenodd" clip-rule="evenodd" d="M4.30769 13.4623C4.30769 13.1649 4.54877 12.9238 4.84615 12.9238H13.4615C13.7589 12.9238 14 13.1649 14 13.4623C14 13.7596 13.7589 14.0007 13.4615 14.0007H4.84615C4.54877 14.0007 4.30769 13.7596 4.30769 13.4623Z" fill="#2F2F2F"/>
</g>
<defs>
<clipPath id="clip0_10446_25600">
<rect width="14" height="14" fill="white"/>
</clipPath>
</defs>
</svg>
