<svg width="14" height="14" viewBox="0 0 14 14" fill="none" xmlns="http://www.w3.org/2000/svg">
<g clip-path="url(#clip0_10446_25629)">
<path d="M13.9249 6.8385C14.025 6.92223 14.025 7.07777 13.9249 7.1615L9.75581 10.646C9.62107 10.7587 9.41778 10.6615 9.41778 10.4845L9.41779 3.51545C9.41779 3.33846 9.62107 3.24133 9.75581 3.35395L13.9249 6.8385Z" fill="#2F2F2F"/>
<path d="M2.47924 6.30208C2.47924 6.18646 2.57173 6.09273 2.68582 6.09273H9.43503C9.54912 6.09273 9.64161 6.18646 9.64161 6.30208V7.69792C9.64161 7.81354 9.54912 7.90727 9.43503 7.90727H2.68582C2.57173 7.90727 2.47924 7.81354 2.47924 7.69792V6.30208Z" fill="#2F2F2F"/>
<path fill-rule="evenodd" clip-rule="evenodd" d="M1.37726 1.47968L7.16241 2.50562V4.54345C7.16241 4.92884 7.47071 5.24126 7.85102 5.24126C8.23133 5.24126 8.53963 4.92884 8.53963 4.54345V2.27109C8.53963 2.26589 8.53963 2.2604 8.53964 2.25463C8.53974 2.18704 8.53988 2.08286 8.52831 1.98857C8.51339 1.86698 8.47178 1.68286 8.32982 1.51165C8.18786 1.34043 8.01607 1.26715 7.90045 1.2313C7.81079 1.2035 7.7095 1.18568 7.64378 1.17412C7.63818 1.17314 7.63283 1.1722 7.62778 1.1713L1.29174 0.0476724C1.28481 0.0464431 1.27759 0.0451534 1.27012 0.0438178C1.17889 0.0275162 1.04935 0.00436898 0.933072 0.000602661C0.788121 -0.00409249 0.541543 0.0145906 0.319373 0.203754C0.0972024 0.392916 0.0365368 0.63583 0.0161142 0.781329C-0.000268867 0.898044 -9.81034e-05 1.03134 2.14315e-05 1.12521C3.08235e-05 1.13291 4.02155e-05 1.14033 4.02155e-05 1.14746V12.8525C4.02155e-05 12.8597 3.08235e-05 12.8671 2.14315e-05 12.8748C-9.81034e-05 12.9687 -0.000268867 13.102 0.0161142 13.2187C0.0365368 13.3642 0.0972024 13.6071 0.31937 13.7962C0.54154 13.9854 0.78812 14.0041 0.933072 13.9994C1.04935 13.9956 1.17889 13.9725 1.27012 13.9562C1.2776 13.9548 1.28481 13.9536 1.29174 13.9523L7.62778 12.8287C7.63283 12.8278 7.63817 12.8269 7.64377 12.8259C7.7095 12.8143 7.81079 12.7965 7.90045 12.7687C8.01607 12.7328 8.18786 12.6596 8.32982 12.4884C8.47178 12.3171 8.51339 12.133 8.52831 12.0114C8.53988 11.9171 8.53974 11.813 8.53964 11.7454C8.53963 11.7396 8.53963 11.7341 8.53963 11.7289V9.58224C8.53963 9.19684 8.23133 8.88442 7.85102 8.88442C7.47071 8.88442 7.16241 9.19684 7.16241 9.58224V11.4944L1.37726 12.5203V1.47968Z" fill="#2F2F2F"/>
</g>
<defs>
<clipPath id="clip0_10446_25629">
<rect width="14" height="14" fill="white"/>
</clipPath>
</defs>
</svg>
