<svg width="14" height="14" viewBox="0 0 14 14" fill="none" xmlns="http://www.w3.org/2000/svg">
<path d="M7 5C6.49368 5 6.00809 5.21071 5.65007 5.58579C5.29205 5.96086 5.09091 6.46957 5.09091 7C5.09091 7.53043 5.29205 8.03914 5.65007 8.41421C6.00809 8.78929 6.49368 9 7 9C7.50632 9 7.99191 8.78929 8.34993 8.41421C8.70796 8.03914 8.90909 7.53043 8.90909 7C8.90909 6.46957 8.70796 5.96086 8.34993 5.58579C7.99191 5.21071 7.50632 5 7 5ZM7 10.3333C6.15613 10.3333 5.34682 9.98214 4.75012 9.35702C4.15341 8.7319 3.81818 7.88406 3.81818 7C3.81818 6.11595 4.15341 5.2681 4.75012 4.64298C5.34682 4.01786 6.15613 3.66667 7 3.66667C7.84387 3.66667 8.65318 4.01786 9.24989 4.64298C9.84659 5.2681 10.1818 6.11595 10.1818 7C10.1818 7.88406 9.84659 8.7319 9.24989 9.35702C8.65318 9.98214 7.84387 10.3333 7 10.3333ZM7 2C3.81818 2 1.10091 4.07333 0 7C1.10091 9.92667 3.81818 12 7 12C10.1818 12 12.8991 9.92667 14 7C12.8991 4.07333 10.1818 2 7 2Z" fill="#2F2F2F"/>
</svg>
