<svg width="14" height="14" viewBox="0 0 14 14" fill="none" xmlns="http://www.w3.org/2000/svg">
<path fill-rule="evenodd" clip-rule="evenodd" d="M1.478 2.01325L12.9417 13.4769L13.9549 12.4637L12.4499 10.9586C12.7904 10.6187 13.114 10.2621 13.4197 9.89015L13.472 9.8271C13.6969 9.55842 14 9.19445 14 8.67142C14 8.14839 13.6969 7.78442 13.472 7.51574L13.4189 7.45269C12.8895 6.80857 12.029 5.87428 10.9471 5.09547C9.87022 4.32024 8.51177 3.65606 7 3.65606C6.44089 3.65606 5.90274 3.74701 5.39206 3.9008L2.49125 1L1.478 2.01325ZM6.60136 5.11011C6.73372 5.09622 6.86666 5.08902 7 5.08902C8.09335 5.08902 9.15947 5.5748 10.1102 6.25832C11.0553 6.93825 11.8262 7.77152 12.3134 8.36333C12.3707 8.43207 12.4271 8.50158 12.4825 8.57183C12.5078 8.60399 12.5317 8.63721 12.5541 8.67142C12.5317 8.70538 12.5078 8.73837 12.4825 8.77029C12.1574 9.18252 11.8081 9.57491 11.4367 9.94544L9.84866 8.3574C9.81382 8.04098 9.72643 7.73182 9.58939 7.44287C9.40729 7.05892 9.14208 6.72026 8.81297 6.45143C8.48385 6.1826 8.09908 5.99032 7.6865 5.88852C7.56346 5.85816 7.43886 5.83608 7.31354 5.82228L6.60136 5.11011ZM10.2385 12.7124L9.18526 11.6599C8.48884 12.0253 7.75087 12.2538 7 12.2538C5.90665 12.2538 4.84053 11.768 3.89048 11.0845C2.94473 10.4039 2.1738 9.57132 1.68659 8.9795C1.61494 8.89281 1.56192 8.82761 1.5175 8.77101C1.49221 8.73885 1.4683 8.70562 1.44585 8.67142C1.45923 8.64992 1.48311 8.61673 1.5175 8.57183C1.56192 8.51451 1.61494 8.45003 1.68659 8.36333C2.16305 7.78442 2.91177 6.97479 3.82886 6.30345L2.8043 5.27889C1.8392 6.0183 1.0697 6.85873 0.580348 7.4534L0.528045 7.51645C0.303071 7.78513 0 8.1491 0 8.67213C0 9.19516 0.303071 9.55914 0.528045 9.82782L0.580348 9.89086C1.11054 10.535 1.97032 11.4693 3.05292 12.2481C4.12979 13.0226 5.48895 13.6868 7 13.6868C8.19652 13.6868 9.29703 13.2705 10.2385 12.7124ZM4.61192 7.08658C4.2459 7.63776 4.08186 8.29861 4.14765 8.95698C4.21344 9.61535 4.505 10.2307 4.97285 10.6985C5.44071 11.1664 6.05603 11.4579 6.7144 11.5237C7.37277 11.5895 8.03362 11.4255 8.5848 11.0595L7.52871 10.0034C7.26863 10.1067 6.984 10.1315 6.70994 10.0749C6.43589 10.0183 6.1844 9.88273 5.98653 9.68485C5.78865 9.48698 5.65304 9.23549 5.59644 8.96143C5.53984 8.68738 5.56472 8.40275 5.66801 8.14267L4.61192 7.08658Z" fill="#2F2F2F"/>
</svg>
