<svg width="14" height="14" viewBox="0 0 14 14" fill="none" xmlns="http://www.w3.org/2000/svg">
<g clip-path="url(#clip0_10446_25627)">
<path fill-rule="evenodd" clip-rule="evenodd" d="M11.7005 2.54856C11.5979 2.65275 11.4945 2.84083 11.4945 3.16646V3.63083C11.4945 3.9677 11.2214 4.24079 10.8845 4.24079C10.5477 4.24079 10.2746 3.9677 10.2746 3.63083V3.16646C10.2746 2.56252 10.4761 2.05342 10.831 1.69283C11.1809 1.33734 11.6455 1.16216 12.1044 1.16216C12.5633 1.16216 13.0279 1.33734 13.3778 1.69283C13.7327 2.05342 13.9343 2.56252 13.9343 3.16646V10.137C13.9343 11.2868 13.5633 12.2676 12.8571 12.9611C12.1528 13.6529 11.1749 14 10.0713 14H6.31315C5.68607 14 5.08842 13.7372 4.66526 13.2749L1.5883 9.91817C1.58826 9.91813 1.58834 9.91822 1.5883 9.91817C1.23567 9.53366 1.02845 9.03782 1.00272 8.51673C0.976992 7.99559 1.13428 7.48185 1.44737 7.06445C1.44736 7.06446 1.44738 7.06444 1.44737 7.06445L3.07716 4.8914C3.27928 4.62191 3.6616 4.56729 3.93109 4.76941C4.20058 4.97153 4.2552 5.35385 4.05308 5.62334L2.42329 7.79639C2.28097 7.98612 2.20944 8.21968 2.22114 8.45657C2.23284 8.69346 2.32699 8.9188 2.48731 9.09359L5.56484 12.4509C5.75651 12.6603 6.02775 12.7801 6.31315 12.7801H10.0713C10.9194 12.7801 11.5681 12.5172 12.0023 12.0908C12.4348 11.6661 12.7144 11.0203 12.7144 10.137V3.16646C12.7144 2.84083 12.611 2.65275 12.5084 2.54856C12.4008 2.43927 12.2555 2.38206 12.1044 2.38206C11.9534 2.38206 11.808 2.43927 11.7005 2.54856Z" fill="#2F2F2F"/>
<path fill-rule="evenodd" clip-rule="evenodd" d="M10.938 0.959266C11.2929 1.31986 11.4945 1.82895 11.4945 2.43289L11.4945 3.63083C11.4945 3.9677 11.2214 4.24079 10.8845 4.24079C10.5477 4.24079 10.2746 3.9677 10.2746 3.63083V2.43289C10.2746 2.10726 10.1712 1.91919 10.0686 1.81499C9.96103 1.7057 9.81567 1.64849 9.66463 1.64849C9.51359 1.64849 9.36823 1.7057 9.26066 1.81499C9.1581 1.91919 9.05468 2.10726 9.05468 2.43289V3.63083C9.05468 3.9677 8.78159 4.24079 8.44473 4.24079C8.10786 4.24079 7.83478 3.9677 7.83478 3.63083V2.0043C7.83478 1.85538 7.88815 1.71892 7.97681 1.61301C8.07161 1.36177 8.21183 1.14154 8.39124 0.959266C8.74113 0.603776 9.20572 0.428592 9.66463 0.428592C10.1235 0.428592 10.5881 0.603776 10.938 0.959266Z" fill="#2F2F2F"/>
<path fill-rule="evenodd" clip-rule="evenodd" d="M6.82085 1.3864C6.7183 1.4906 6.61487 1.67867 6.61487 2.0043V3.63083C6.61487 3.9677 6.34179 4.24079 6.00492 4.24079C5.66806 4.24079 5.39497 3.9677 5.39497 3.63083V1.90996C5.39497 1.63587 5.18847 1.39435 4.78502 1.39435C4.62325 1.39435 4.46811 1.45861 4.35372 1.573C4.23933 1.68739 4.17507 1.84253 4.17507 2.0043V7.69717C4.17507 8.03404 3.90199 8.30713 3.56512 8.30713C3.22825 8.30713 2.95517 8.03404 2.95517 7.69717V2.0043C2.95517 1.51899 3.14796 1.05356 3.49112 0.710397C3.83429 0.367233 4.29972 0.174446 4.78502 0.174446C5.20471 0.174446 5.61314 0.305321 5.93728 0.545221C5.94197 0.540346 5.94669 0.535497 5.95143 0.530674C6.30133 0.175184 6.76592 0 7.22483 0C7.68373 0 8.14833 0.175184 8.49822 0.530674C8.55938 0.592812 8.61598 0.65936 8.66779 0.730044C8.96882 0.528343 9.31834 0.428592 9.66463 0.428592C10.1235 0.428592 10.5881 0.603776 10.938 0.959266C11.2929 1.31986 11.4945 1.82895 11.4945 2.43289L11.4945 3.63083C11.4945 3.9677 11.2214 4.24079 10.8845 4.24079C10.5477 4.24079 10.2746 3.9677 10.2746 3.63083V2.43289C10.2746 2.10726 10.1712 1.91919 10.0686 1.81499C9.96103 1.7057 9.81567 1.64849 9.66463 1.64849C9.51359 1.64849 9.36823 1.7057 9.26066 1.81499C9.1581 1.91919 9.05468 2.10726 9.05468 2.43289V3.63083C9.05468 3.9677 8.78159 4.24079 8.44473 4.24079C8.10786 4.24079 7.83478 3.9677 7.83478 3.63083V2.0043C7.83478 1.67867 7.73135 1.4906 7.6288 1.3864C7.52123 1.27711 7.37587 1.2199 7.22483 1.2199C7.07378 1.2199 6.92842 1.27711 6.82085 1.3864Z" fill="#2F2F2F"/>
</g>
<defs>
<clipPath id="clip0_10446_25627">
<rect width="14" height="14" fill="white"/>
</clipPath>
</defs>
</svg>
