<svg width="14" height="14" viewBox="0 0 14 14" fill="none" xmlns="http://www.w3.org/2000/svg">
<g clip-path="url(#clip0_10446_25640)">
<path d="M12.6647 1.33164C11.8061 0.473047 10.6659 0 9.44907 0C8.23228 0 7.08931 0.473047 6.23071 1.33164C5.63735 1.925 5.22173 2.67148 5.02485 3.48906C4.83618 4.28203 4.86353 5.11055 5.10142 5.88711L0.146729 10.8418C0.048291 10.9375 -0.00366211 11.066 -0.00366211 11.2027V13.4887C-0.00366211 13.7703 0.226025 14 0.507666 14H2.7936C2.93032 14 3.05884 13.948 3.15454 13.8496L3.72603 13.2781C3.83813 13.166 3.89009 13.0129 3.87368 12.857L3.81626 12.3539L4.55728 12.2828C4.80063 12.2609 4.99478 12.0668 5.01938 11.8207L5.09048 11.0797L5.5936 11.1371C5.61274 11.1371 5.63188 11.1398 5.65376 11.1398C5.77954 11.1398 5.89985 11.0934 5.99282 11.0113C6.1022 10.9156 6.16509 10.7762 6.16509 10.6285V9.9832H6.79673C6.93345 9.9832 7.05923 9.93125 7.15767 9.83555L8.1147 8.88945C8.54946 9.02344 9.00064 9.0918 9.45728 9.0918C10.6741 9.0918 11.8143 8.61875 12.6729 7.76289C14.4475 5.98828 14.4475 3.10078 12.6729 1.32617L12.6647 1.33164ZM11.9428 7.04375C11.2784 7.7082 10.3924 8.07461 9.45181 8.07461C8.51118 8.07461 8.57681 7.99258 8.16118 7.83125C8.10103 7.80664 8.03813 7.7957 7.97524 7.7957C7.83852 7.7957 7.71274 7.84766 7.61431 7.94336L6.58071 8.96602H5.64829C5.36665 8.96602 5.13696 9.1957 5.13696 9.47734V10.0598L4.68306 10.0078C4.66392 10.0078 4.64478 10.0051 4.6229 10.0051C4.50532 10.0051 4.39048 10.0461 4.30024 10.1199C4.1936 10.2047 4.12524 10.3332 4.11157 10.4699L4.03228 11.3094L3.19282 11.3887C3.0561 11.4023 2.93032 11.4707 2.84282 11.5773C2.75806 11.684 2.71704 11.8234 2.73345 11.9574L2.82368 12.734L2.57759 12.9801H1.01626V11.4187L6.04751 6.3875C6.19243 6.24258 6.23618 6.0293 6.16235 5.84063C5.65103 4.53359 5.96001 3.04883 6.94985 2.05898C7.61431 1.39453 8.50024 1.02812 9.4436 1.02812C10.387 1.02812 11.2729 1.39453 11.9374 2.05898C13.3127 3.43438 13.3127 5.67109 11.9374 7.04648L11.9428 7.04375ZM10.5893 2.08633C10.2366 2.08633 9.90571 2.22305 9.65688 2.47187C9.40806 2.7207 9.27134 3.05156 9.27134 3.4043C9.27134 3.75703 9.40806 4.08789 9.65688 4.33672C9.90571 4.58555 10.2366 4.72227 10.5893 4.72227C10.942 4.72227 11.2729 4.58555 11.5217 4.33672C11.7706 4.08789 11.9073 3.75703 11.9073 3.4043C11.9073 3.05156 11.7706 2.7207 11.5217 2.47187C11.2729 2.22305 10.942 2.08633 10.5893 2.08633ZM10.7999 3.61484C10.7452 3.66953 10.6686 3.70234 10.5893 3.70234C10.51 3.70234 10.4362 3.67227 10.3788 3.61484C10.2639 3.5 10.2639 3.31133 10.3788 3.19648C10.4334 3.1418 10.51 3.10898 10.5893 3.10898C10.6686 3.10898 10.7424 3.13906 10.7999 3.19648C10.9147 3.31133 10.9147 3.5 10.7999 3.61484Z" fill="#2F2F2F"/>
</g>
<defs>
<clipPath id="clip0_10446_25640">
<rect width="14" height="14" fill="white"/>
</clipPath>
</defs>
</svg>
