<svg width="14" height="14" viewBox="0 0 14 14" fill="none" xmlns="http://www.w3.org/2000/svg">
<path d="M1 14V4.66667H3.0625V3.33333C3.0625 2.41111 3.39777 1.62511 4.06831 0.975334C4.73885 0.325556 5.54942 0.0004449 6.5 4.55063e-07C7.45058 -0.000443989 8.26137 0.324667 8.93237 0.975334C9.60338 1.626 9.93842 2.412 9.9375 3.33333V4.66667H12V14H1ZM2.375 12.6667H10.625V6H2.375V12.6667ZM6.5 10.6667C6.87813 10.6667 7.20194 10.5362 7.47144 10.2753C7.74094 10.0144 7.87546 9.70045 7.875 9.33333C7.87454 8.96622 7.74002 8.65245 7.47144 8.392C7.20285 8.13156 6.87904 8.00089 6.5 8C6.12096 7.99911 5.79738 8.12978 5.52925 8.392C5.26113 8.65422 5.12638 8.968 5.125 9.33333C5.12362 9.69867 5.25838 10.0127 5.52925 10.2753C5.80013 10.538 6.12371 10.6684 6.5 10.6667ZM4.4375 4.66667H8.5625V3.33333C8.5625 2.77778 8.36198 2.30556 7.96094 1.91667C7.5599 1.52778 7.07292 1.33333 6.5 1.33333C5.92708 1.33333 5.4401 1.52778 5.03906 1.91667C4.63802 2.30556 4.4375 2.77778 4.4375 3.33333V4.66667Z" fill="#2F2F2F"/>
</svg>
