<svg width="14" height="14" viewBox="0 0 14 14" fill="none" xmlns="http://www.w3.org/2000/svg">
<path d="M1.4 13C1.015 13 0.685533 12.8532 0.4116 12.5597C0.137667 12.2662 0.000466667 11.913 0 11.5V2.5C0 2.0875 0.1372 1.7345 0.4116 1.441C0.686 1.1475 1.01547 1.0005 1.4 1H12.6C12.985 1 13.3147 1.147 13.5891 1.441C13.8635 1.735 14.0005 2.088 14 2.5V11.5C14 11.9125 13.863 12.2657 13.5891 12.5597C13.3152 12.8537 12.9855 13.0005 12.6 13H1.4ZM12.6 4L7.3675 7.50625C7.30917 7.54375 7.24803 7.572 7.1841 7.591C7.12017 7.61 7.0588 7.61925 7 7.61875C6.9412 7.61825 6.88007 7.609 6.8166 7.591C6.75313 7.573 6.69177 7.54475 6.6325 7.50625L1.4 4V11.5H12.6V4ZM7 6.25L12.6 2.5H1.4L7 6.25ZM1.4 4.1875V3.08125V3.1V3.091V4.1875Z" fill="#2F2F2F"/>
</svg>
