<svg width="14" height="14" viewBox="0 0 14 14" fill="none" xmlns="http://www.w3.org/2000/svg">
<g clip-path="url(#clip0_10446_25625)">
<path d="M8.20661 12.3015C9.29601 12.3015 10.361 11.9785 11.2668 11.3733C12.1726 10.768 12.8786 9.90775 13.2955 8.90127C13.7124 7.89479 13.8214 6.78728 13.6089 5.71881C13.3964 4.65033 12.8718 3.66887 12.1015 2.89855C11.3311 2.12822 10.3497 1.60362 9.28119 1.39108C8.21272 1.17855 7.10521 1.28763 6.09873 1.70453C5.09225 2.12143 4.23199 2.82742 3.62675 3.73323C3.0215 4.63904 2.69846 5.70399 2.69846 6.7934V9.63927L1.04601 7.98683L0.403395 8.62944L3.15747 11.3835L5.91154 8.62944L5.26893 7.98683L3.61648 9.63927V6.7934C3.61648 5.88555 3.88569 4.9981 4.39006 4.24326C4.89443 3.48842 5.61131 2.90009 6.45004 2.55267C7.28878 2.20526 8.2117 2.11436 9.10209 2.29147C9.99249 2.46858 10.8104 2.90575 11.4523 3.54769C12.0943 4.18963 12.5314 5.00751 12.7085 5.89791C12.8856 6.7883 12.7947 7.71122 12.4473 8.54996C12.0999 9.38869 11.5116 10.1056 10.7567 10.6099C10.0019 11.1143 9.11445 11.3835 8.20661 11.3835V12.3015Z" fill="#2F2F2F"/>
<path fill-rule="evenodd" clip-rule="evenodd" d="M5.98957 1.441C7.04817 1.00251 8.21303 0.887782 9.33684 1.11132C10.4606 1.33486 11.4929 1.88663 12.3032 2.69685C13.1134 3.50707 13.6651 4.53935 13.8887 5.66316C14.1122 6.78697 13.9975 7.95183 13.559 9.01043C13.1205 10.069 12.378 10.9738 11.4252 11.6104C10.4725 12.247 9.35243 12.5868 8.20661 12.5868H7.92136V11.0983H8.20661C9.05803 11.0983 9.89034 10.8458 10.5983 10.3728C11.3062 9.89975 11.858 9.22742 12.1838 8.4408C12.5096 7.65419 12.5949 6.78862 12.4288 5.95355C12.2627 5.11849 11.8527 4.35143 11.2506 3.74938C10.6486 3.14734 9.88151 2.73734 9.04645 2.57123C8.21138 2.40513 7.34581 2.49038 6.5592 2.8162C5.77258 3.14203 5.10026 3.6938 4.62723 4.40173C4.1542 5.10967 3.90173 5.94197 3.90173 6.7934V8.95063L5.26893 7.58343L6.31494 8.62944L3.15747 11.7869L0 8.62944L1.04601 7.58343L2.41321 8.95063V6.7934C2.41321 5.64757 2.75299 4.52748 3.38958 3.57476C4.02616 2.62204 4.93097 1.87949 5.98957 1.441ZM9.22554 1.67085C8.2124 1.46932 7.16225 1.57275 6.20789 1.96806C5.25353 2.36337 4.43782 3.0328 3.86392 3.8917C3.29002 4.75061 2.9837 5.7604 2.9837 6.7934V10.3279L1.04601 8.39022L0.80679 8.62944L3.15747 10.9801L5.50815 8.62944L5.26893 8.39022L3.33124 10.3279V6.7934C3.33124 5.82914 3.61717 4.88654 4.15289 4.08479C4.6886 3.28304 5.45003 2.65815 6.34088 2.28914C7.23174 1.92014 8.21201 1.82359 9.15774 2.01171C10.1035 2.19982 10.9722 2.66416 11.654 3.34599C12.3358 4.02782 12.8002 4.89653 12.9883 5.84226C13.1764 6.78799 13.0799 7.76826 12.7109 8.65912C12.3419 9.54997 11.717 10.3114 10.9152 10.8471C10.1927 11.3299 9.35587 11.6098 8.49185 11.6604V12.0085C9.42466 11.9575 10.3286 11.657 11.1083 11.1361C11.9672 10.5622 12.6366 9.74648 13.0319 8.79211C13.4272 7.83775 13.5307 6.7876 13.3292 5.77446C13.1276 4.76131 12.6302 3.83068 11.8998 3.10024C11.1693 2.36981 10.2387 1.87237 9.22554 1.67085Z" fill="#2F2F2F"/>
</g>
<defs>
<clipPath id="clip0_10446_25625">
<rect width="14" height="14" fill="white"/>
</clipPath>
</defs>
</svg>
