<svg width="14" height="14" viewBox="0 0 14 14" fill="none" xmlns="http://www.w3.org/2000/svg">
<g clip-path="url(#clip0_10446_25614)">
<path d="M12.3485 7.686C12.3773 7.462 12.3989 7.238 12.3989 7C12.3989 6.762 12.3773 6.538 12.3485 6.314L13.8669 5.159C14.0037 5.054 14.0397 4.865 13.9533 4.711L12.514 2.289C12.4493 2.177 12.3269 2.114 12.1974 2.114C12.1542 2.114 12.111 2.121 12.075 2.135L10.2831 2.835C9.90894 2.555 9.50594 2.324 9.06696 2.149L8.7935 0.294C8.77191 0.126 8.62078 0 8.44088 0H5.56232C5.38241 0 5.23129 0.126 5.2097 0.294L4.93624 2.149C4.49726 2.324 4.09426 2.562 3.72005 2.835L1.92815 2.135C1.88497 2.121 1.84179 2.114 1.79861 2.114C1.67628 2.114 1.55394 2.177 1.48917 2.289L0.0498936 4.711C-0.0436593 4.865 -0.000480936 5.054 0.13625 5.159L1.65469 6.314C1.6259 6.538 1.60431 6.769 1.60431 7C1.60431 7.231 1.6259 7.462 1.65469 7.686L0.13625 8.841C-0.000480936 8.946 -0.0364629 9.135 0.0498936 9.289L1.48917 11.711C1.55394 11.823 1.67628 11.886 1.80581 11.886C1.84899 11.886 1.89217 11.879 1.92815 11.865L3.72005 11.165C4.09426 11.445 4.49726 11.676 4.93624 11.851L5.2097 13.706C5.23129 13.874 5.38241 14 5.56232 14H8.44088C8.62078 14 8.77191 13.874 8.7935 13.706L9.06696 11.851C9.50594 11.676 9.90894 11.438 10.2831 11.165L12.075 11.865C12.1182 11.879 12.1614 11.886 12.2046 11.886C12.3269 11.886 12.4493 11.823 12.514 11.711L13.9533 9.289C14.0397 9.135 14.0037 8.946 13.8669 8.841L12.3485 7.686ZM10.9236 6.489C10.9524 6.706 10.9596 6.853 10.9596 7C10.9596 7.147 10.9452 7.301 10.9236 7.511L10.8229 8.302L11.4634 8.792L12.2406 9.38L11.7368 10.227L10.8229 9.87L10.0745 9.576L9.42678 10.052C9.11733 10.276 8.82228 10.444 8.52723 10.563L7.76442 10.864L7.64927 11.655L7.50535 12.6H6.49785L6.36112 11.655L6.24598 10.864L5.48316 10.563C5.17372 10.437 4.88586 10.276 4.59801 10.066L3.94314 9.576L3.18032 9.877L2.26638 10.234L1.76263 9.387L2.53984 8.799L3.18032 8.309L3.07957 7.518C3.05798 7.301 3.04359 7.14 3.04359 7C3.04359 6.86 3.05798 6.699 3.07957 6.489L3.18032 5.698L2.53984 5.208L1.76263 4.62L2.26638 3.773L3.18032 4.13L3.92874 4.424L4.57642 3.948C4.88586 3.724 5.18091 3.556 5.47597 3.437L6.23878 3.136L6.35392 2.345L6.49785 1.4H7.49815L7.63488 2.345L7.75002 3.136L8.51284 3.437C8.82228 3.563 9.11014 3.724 9.39799 3.934L10.0529 4.424L10.8157 4.123L11.7296 3.766L12.2334 4.613L11.4634 5.208L10.8229 5.698L10.9236 6.489ZM7.0016 4.2C5.4112 4.2 4.12305 5.453 4.12305 7C4.12305 8.547 5.4112 9.8 7.0016 9.8C8.592 9.8 9.88015 8.547 9.88015 7C9.88015 5.453 8.592 4.2 7.0016 4.2ZM7.0016 8.4C6.21 8.4 5.56232 7.77 5.56232 7C5.56232 6.23 6.21 5.6 7.0016 5.6C7.7932 5.6 8.44088 6.23 8.44088 7C8.44088 7.77 7.7932 8.4 7.0016 8.4Z" fill="#2F2F2F"/>
</g>
<defs>
<clipPath id="clip0_10446_25614">
<rect width="14" height="14" fill="white"/>
</clipPath>
</defs>
</svg>
