<svg width="14" height="14" viewBox="0 0 14 14" fill="none" xmlns="http://www.w3.org/2000/svg">
<g clip-path="url(#clip0_10446_25631)">
<path d="M2.86795 2.63769C2.86795 2.50874 2.81673 2.38507 2.72555 2.29388C2.63436 2.2027 2.51069 2.15147 2.38174 2.15147C2.25279 2.15147 2.12912 2.2027 2.03794 2.29388C1.94675 2.38507 1.89553 2.50874 1.89553 2.63769V11.1882L0.781125 10.0729C0.689827 9.98157 0.566 9.93028 0.436886 9.93028C0.307771 9.93028 0.183944 9.98157 0.0926462 10.0729C0.00134827 10.1642 -0.0499424 10.288 -0.0499424 10.4171C-0.0499424 10.5462 0.00134827 10.6701 0.0926462 10.7613L2.04431 12.712C2.1356 12.8011 2.25836 12.8504 2.38586 12.8493C2.51336 12.8482 2.63526 12.7968 2.72501 12.7062L4.66986 10.7613C4.71507 10.7162 4.75094 10.6626 4.77543 10.6036C4.79992 10.5446 4.81255 10.4813 4.8126 10.4175C4.81264 10.3536 4.8001 10.2903 4.77569 10.2313C4.75129 10.1722 4.71549 10.1186 4.67035 10.0734C4.62521 10.0281 4.5716 9.99228 4.5126 9.96779C4.45359 9.9433 4.39034 9.93067 4.32645 9.93062C4.26257 9.93058 4.1993 9.94312 4.14026 9.96752C4.08122 9.99193 4.02756 10.0277 3.98236 10.0729L2.86795 11.1882V2.63769ZM6.27145 3.61012C6.27145 3.48116 6.32268 3.35749 6.41386 3.26631C6.50504 3.17513 6.62871 3.1239 6.75767 3.1239H13.5647C13.6936 3.1239 13.8173 3.17513 13.9085 3.26631C13.9996 3.35749 14.0509 3.48116 14.0509 3.61012C14.0509 3.73907 13.9996 3.86274 13.9085 3.95392C13.8173 4.0451 13.6936 4.09633 13.5647 4.09633H6.75767C6.62871 4.09633 6.50504 4.0451 6.41386 3.95392C6.32268 3.86274 6.27145 3.73907 6.27145 3.61012ZM6.75767 6.04118C6.62871 6.04118 6.50504 6.09241 6.41386 6.18359C6.32268 6.27478 6.27145 6.39845 6.27145 6.5274C6.27145 6.65635 6.32268 6.78002 6.41386 6.8712C6.50504 6.96239 6.62871 7.01361 6.75767 7.01361H11.6198C11.7488 7.01361 11.8724 6.96239 11.9636 6.8712C12.0548 6.78002 12.106 6.65635 12.106 6.5274C12.106 6.39845 12.0548 6.27478 11.9636 6.18359C11.8724 6.09241 11.7488 6.04118 11.6198 6.04118H6.75767ZM6.75767 8.95847C6.62871 8.95847 6.50504 9.00969 6.41386 9.10088C6.32268 9.19206 6.27145 9.31573 6.27145 9.44468C6.27145 9.57363 6.32268 9.6973 6.41386 9.78849C6.50504 9.87967 6.62871 9.93089 6.75767 9.93089H9.67495C9.8039 9.93089 9.92757 9.87967 10.0188 9.78849C10.1099 9.6973 10.1612 9.57363 10.1612 9.44468C10.1612 9.31573 10.1099 9.19206 10.0188 9.10088C9.92757 9.00969 9.8039 8.95847 9.67495 8.95847H6.75767ZM6.75767 11.8758C6.62871 11.8758 6.50504 11.927 6.41386 12.0182C6.32268 12.1093 6.27145 12.233 6.27145 12.362C6.27145 12.4909 6.32268 12.6146 6.41386 12.7058C6.50504 12.797 6.62871 12.8482 6.75767 12.8482H7.73009C7.85905 12.8482 7.98272 12.797 8.0739 12.7058C8.16508 12.6146 8.21631 12.4909 8.21631 12.362C8.21631 12.233 8.16508 12.1093 8.0739 12.0182C7.98272 11.927 7.85905 11.8758 7.73009 11.8758H6.75767Z" fill="#2F2F2F"/>
<path fill-rule="evenodd" clip-rule="evenodd" d="M1.93071 2.18666C2.05023 2.06714 2.21233 2 2.38135 2C2.55037 2 2.71247 2.06714 2.83198 2.18666C2.9515 2.30617 3.01864 2.46827 3.01864 2.63729V10.8229L3.87509 9.96569C3.93433 9.90653 4.00477 9.8595 4.08215 9.82751C4.15952 9.79553 4.24244 9.77909 4.32617 9.77915C4.4099 9.77921 4.49279 9.79576 4.57012 9.82786C4.64745 9.85995 4.7177 9.90696 4.77686 9.96621C4.83602 10.0255 4.88294 10.0958 4.91492 10.1731C4.94691 10.2505 4.96334 10.3334 4.96328 10.4172C4.96322 10.5009 4.94667 10.5838 4.91458 10.6611C4.8825 10.7384 4.83551 10.8086 4.7763 10.8678M4.7763 10.8678L2.83193 12.8122C2.71415 12.9309 2.554 12.9985 2.38676 13C2.21941 13.0014 2.05826 12.9367 1.93844 12.8198L1.93708 12.8185L-0.0145503 10.8678C-0.134181 10.7482 -0.201416 10.5859 -0.201416 10.4167C-0.201416 10.2475 -0.134208 10.0853 -0.014577 9.96565C0.105054 9.84602 0.267309 9.77881 0.436492 9.77881C0.605676 9.77881 0.76793 9.84602 0.887561 9.96565L1.74405 10.8229V2.63729C1.74405 2.46827 1.8112 2.30617 1.93071 2.18666M2.38135 2.30216C2.29246 2.30216 2.20722 2.33747 2.14437 2.40032C2.08152 2.46317 2.04621 2.54841 2.04621 2.63729V11.5528L0.673902 10.1793C0.610942 10.1164 0.525516 10.081 0.436492 10.081C0.347446 10.081 0.262047 10.1163 0.199083 10.1793C0.136118 10.2423 0.100744 10.3277 0.100744 10.4167C0.100744 10.5057 0.136108 10.5911 0.199056 10.6541L2.14391 12.598L2.14939 12.6035C2.21214 12.6647 2.29653 12.6986 2.38417 12.6978C2.47181 12.6971 2.55561 12.6617 2.6173 12.5995L4.56264 10.6541C4.59381 10.623 4.61861 10.586 4.6355 10.5453C4.65238 10.5046 4.66109 10.461 4.66112 10.417C4.66115 10.3729 4.65251 10.3293 4.63568 10.2886C4.61885 10.2479 4.59417 10.2109 4.56305 10.1797C4.53193 10.1486 4.49497 10.1238 4.45429 10.1069C4.41361 10.09 4.37 10.0813 4.32595 10.0813C4.28191 10.0813 4.23829 10.0899 4.19758 10.1068C4.1569 10.1236 4.11992 10.1482 4.08876 10.1793L2.71648 11.5528V2.63729C2.71648 2.54841 2.68117 2.46317 2.61832 2.40032C2.55547 2.33747 2.47023 2.30216 2.38135 2.30216ZM6.75727 3.27459C6.66839 3.27459 6.58315 3.3099 6.5203 3.37275C6.45745 3.4356 6.42214 3.52084 6.42214 3.60972C6.42214 3.6986 6.45745 3.78385 6.5203 3.8467C6.58315 3.90955 6.66839 3.94486 6.75727 3.94486H13.5643C13.6531 3.94486 13.7384 3.90955 13.8012 3.8467C13.8641 3.78385 13.8994 3.69861 13.8994 3.60972C13.8994 3.52084 13.8641 3.4356 13.8012 3.37275C13.7384 3.3099 13.6531 3.27459 13.5643 3.27459H6.75727ZM6.30664 3.15909C6.42615 3.03957 6.58825 2.97243 6.75727 2.97243H13.5643C13.7333 2.97243 13.8954 3.03957 14.0149 3.15909C14.1344 3.2786 14.2016 3.4407 14.2016 3.60972C14.2016 3.77874 14.1344 3.94084 14.0149 4.06036C13.8954 4.17987 13.7333 4.24702 13.5643 4.24702H6.75727C6.58825 4.24702 6.42615 4.17987 6.30664 4.06036C6.18712 3.94084 6.11998 3.77874 6.11998 3.60972C6.11998 3.4407 6.18712 3.2786 6.30664 3.15909ZM6.30664 6.07637C6.42615 5.95685 6.58825 5.88971 6.75727 5.88971H11.6194C11.7884 5.88971 11.9505 5.95685 12.07 6.07637C12.1896 6.19589 12.2567 6.35798 12.2567 6.52701C12.2567 6.69603 12.1896 6.85812 12.07 6.97764C11.9505 7.09716 11.7884 7.1643 11.6194 7.1643H6.75727C6.58825 7.1643 6.42615 7.09716 6.30664 6.97764C6.18712 6.85812 6.11998 6.69603 6.11998 6.52701C6.11998 6.35798 6.18712 6.19589 6.30664 6.07637ZM6.75727 6.19187C6.66839 6.19187 6.58315 6.22718 6.5203 6.29003C6.45745 6.35288 6.42214 6.43812 6.42214 6.52701C6.42214 6.61589 6.45745 6.70113 6.5203 6.76398C6.58315 6.82683 6.66839 6.86214 6.75727 6.86214H11.6194C11.7083 6.86214 11.7935 6.82683 11.8564 6.76398C11.9192 6.70113 11.9545 6.61589 11.9545 6.52701C11.9545 6.43812 11.9192 6.35288 11.8564 6.29003C11.7935 6.22718 11.7083 6.19187 11.6194 6.19187H6.75727ZM6.30664 8.99365C6.42615 8.87414 6.58825 8.80699 6.75727 8.80699H9.67455C9.84358 8.80699 10.0057 8.87414 10.1252 8.99365C10.2447 9.11317 10.3118 9.27527 10.3118 9.44429C10.3118 9.61331 10.2447 9.77541 10.1252 9.89492C10.0057 10.0144 9.84358 10.0816 9.67455 10.0816H6.75727C6.58825 10.0816 6.42615 10.0144 6.30664 9.89492C6.18712 9.77541 6.11998 9.61331 6.11998 9.44429C6.11998 9.27527 6.18712 9.11317 6.30664 8.99365ZM6.75727 9.10916C6.66839 9.10916 6.58315 9.14446 6.5203 9.20731C6.45745 9.27016 6.42214 9.35541 6.42214 9.44429C6.42214 9.53317 6.45745 9.61841 6.5203 9.68126C6.58315 9.74411 6.66839 9.77942 6.75727 9.77942H9.67455C9.76344 9.77942 9.84868 9.74411 9.91153 9.68126C9.97438 9.61841 10.0097 9.53317 10.0097 9.44429C10.0097 9.35541 9.97438 9.27016 9.91153 9.20731C9.84868 9.14446 9.76344 9.10916 9.67455 9.10916H6.75727ZM6.30664 11.9109C6.42615 11.7914 6.58825 11.7243 6.75727 11.7243H7.7297C7.89872 11.7243 8.06082 11.7914 8.18034 11.9109C8.29985 12.0305 8.36699 12.1926 8.36699 12.3616C8.36699 12.5306 8.29985 12.6927 8.18034 12.8122C8.06082 12.9317 7.89872 12.9989 7.7297 12.9989H6.75727C6.58825 12.9989 6.42615 12.9317 6.30664 12.8122C6.18712 12.6927 6.11998 12.5306 6.11998 12.3616C6.11998 12.1926 6.18712 12.0305 6.30664 11.9109ZM6.75727 12.0264C6.66839 12.0264 6.58315 12.0617 6.5203 12.1246C6.45745 12.1874 6.42214 12.2727 6.42214 12.3616C6.42214 12.4505 6.45745 12.5357 6.5203 12.5985C6.58315 12.6614 6.66839 12.6967 6.75727 12.6967H7.7297C7.81858 12.6967 7.90383 12.6614 7.96668 12.5985C8.02953 12.5357 8.06483 12.4505 8.06483 12.3616C8.06483 12.2727 8.02953 12.1874 7.96668 12.1246C7.90383 12.0617 7.81858 12.0264 7.7297 12.0264H6.75727Z" fill="#2F2F2F"/>
</g>
<defs>
<clipPath id="clip0_10446_25631">
<rect width="14" height="14" fill="white"/>
</clipPath>
</defs>
</svg>
