<svg width="14" height="14" viewBox="0 0 14 14" fill="none" xmlns="http://www.w3.org/2000/svg">
<g clip-path="url(#clip0_10446_25636)">
<path d="M13.1383 5.05919L9.20367 4.46038L7.44479 0.726361C7.39675 0.624126 7.31771 0.541364 7.22009 0.491058C6.97524 0.364481 6.6777 0.469962 6.55527 0.726361L4.7964 4.46038L0.861776 5.05919C0.753299 5.07541 0.65412 5.12897 0.578186 5.2101C0.486386 5.30891 0.4358 5.44184 0.437544 5.57968C0.439287 5.71752 0.493217 5.849 0.587484 5.94522L3.43423 8.85162L2.76168 12.9556C2.7459 13.0511 2.75599 13.1493 2.7908 13.2391C2.8256 13.3288 2.88373 13.4066 2.95859 13.4635C3.03345 13.5205 3.12205 13.5543 3.21433 13.5612C3.30662 13.5681 3.39891 13.5478 3.48072 13.5025L7.00003 11.5649L10.5193 13.5025C10.6154 13.5561 10.727 13.5739 10.8339 13.5544C11.1036 13.5058 11.2849 13.238 11.2384 12.9556L10.5658 8.85162L13.4126 5.94522C13.4901 5.86571 13.5412 5.76185 13.5567 5.64826C13.5985 5.36427 13.4095 5.10138 13.1383 5.05919ZM9.36793 8.44268L9.92736 11.8554L7.00003 10.2456L4.0727 11.857L4.63213 8.44431L2.26423 6.02636L5.53714 5.52817L7.00003 2.42379L8.46292 5.52817L11.7358 6.02636L9.36793 8.44268Z" fill="#2F2F2F"/>
</g>
<defs>
<clipPath id="clip0_10446_25636">
<rect width="14" height="14" fill="white"/>
</clipPath>
</defs>
</svg>
