<svg width="14" height="14" viewBox="0 0 14 14" fill="none" xmlns="http://www.w3.org/2000/svg">
<path fill-rule="evenodd" clip-rule="evenodd" d="M6.93544 14C7.14173 14 7.33957 13.918 7.48544 13.7722C7.6313 13.6263 7.71325 13.4285 7.71325 13.2222L7.72121 6.96803L10.5338 9.86873C10.6039 9.94582 10.6889 10.008 10.7835 10.0516C10.8782 10.0952 10.9807 10.1194 11.0848 10.1226C11.189 10.1258 11.2928 10.1081 11.39 10.0705C11.4872 10.0328 11.5758 9.976 11.6506 9.90341C11.7254 9.83083 11.7849 9.74395 11.8254 9.64794C11.866 9.55193 11.8869 9.44875 11.8868 9.34452C11.8867 9.24028 11.8657 9.13714 11.8249 9.04119C11.7842 8.94525 11.7246 8.85848 11.6497 8.78602L7.50135 4.50807C7.42885 4.43343 7.34212 4.3741 7.24628 4.33358C7.15044 4.29307 7.04745 4.27219 6.9434 4.27219C6.83935 4.27219 6.73635 4.29307 6.64052 4.33358C6.54468 4.3741 6.45794 4.43343 6.38545 4.50807L2.23713 8.78602C2.1622 8.85848 2.1026 8.94525 2.06186 9.04119C2.02113 9.13714 2.00009 9.24028 2 9.34452C1.99991 9.44875 2.02077 9.55193 2.06134 9.64794C2.10192 9.74395 2.16137 9.83083 2.23618 9.90341C2.31099 9.976 2.39962 10.0328 2.49681 10.0705C2.594 10.1081 2.69777 10.1258 2.80195 10.1226C2.90613 10.1194 3.0086 10.0952 3.10327 10.0516C3.19793 10.008 3.28287 9.94582 3.35303 9.86873L6.16559 6.96906L6.15763 13.2222C6.15763 13.4285 6.23958 13.6263 6.38545 13.7722C6.53132 13.918 6.72916 14 6.93544 14Z" fill="#2F2F2F"/>
<path d="M2 1C2 0.447715 2.44772 0 3 0H11C11.5523 0 12 0.447715 12 1C12 1.55228 11.5523 2 11 2H3C2.44772 2 2 1.55228 2 1Z" fill="#2F2F2F"/>
</svg>
