<svg width="30" height="31" viewBox="0 0 30 31" fill="none" xmlns="http://www.w3.org/2000/svg">
<path d="M29.9034 9.35464C29.8866 8.09501 29.6504 6.84789 29.2054 5.66909C28.8194 4.67477 28.23 3.77176 27.4747 3.01774C26.7195 2.26372 25.8149 1.67527 24.819 1.29C23.6534 0.853183 22.422 0.616989 21.1773 0.591474C19.5746 0.519958 19.0665 0.5 14.9983 0.5C10.9301 0.5 10.4087 0.5 8.81775 0.591474C7.57357 0.617176 6.34276 0.853368 5.1777 1.29C4.18157 1.675 3.27691 2.26335 2.5216 3.01741C1.76629 3.77146 1.17696 4.67462 0.791315 5.66909C0.352895 6.83185 0.11682 8.06089 0.0932919 9.30308C0.021657 10.9047 0 11.412 0 15.4734C0 19.5348 -9.30909e-09 20.0537 0.0932919 21.6437C0.118281 22.8877 0.353176 24.1152 0.791315 25.281C1.17761 26.2752 1.76737 27.178 2.52294 27.9317C3.2785 28.6854 4.18325 29.2736 5.17936 29.6584C6.34124 30.1128 7.57226 30.3659 8.81942 30.4069C10.4237 30.4784 10.9318 30.5 15 30.5C19.0682 30.5 19.5896 30.5 21.1806 30.4069C22.4253 30.3824 23.6568 30.1468 24.8223 29.71C25.818 29.3243 26.7223 28.7357 27.4775 27.9817C28.2327 27.2278 28.8223 26.325 29.2087 25.3309C29.6468 24.1667 29.8817 22.9393 29.9067 21.6936C29.9783 20.0936 30 19.5864 30 15.5233C29.9967 11.4619 29.9967 10.9463 29.9034 9.35464ZM14.9883 23.1538C10.7336 23.1538 7.28676 19.7128 7.28676 15.4651C7.28676 11.2174 10.7336 7.77631 14.9883 7.77631C17.0309 7.77631 18.9899 8.58637 20.4342 10.0283C21.8785 11.4702 22.6899 13.4259 22.6899 15.4651C22.6899 17.5043 21.8785 19.4599 20.4342 20.9019C18.9899 22.3438 17.0309 23.1538 14.9883 23.1538ZM22.9964 9.28479C22.7605 9.28501 22.5269 9.23878 22.3089 9.14876C22.091 9.05874 21.8929 8.92668 21.7261 8.76015C21.5593 8.59363 21.427 8.39589 21.3368 8.17827C21.2467 7.96065 21.2004 7.72741 21.2006 7.49191C21.2006 7.25657 21.247 7.02354 21.3372 6.80612C21.4274 6.5887 21.5597 6.39114 21.7263 6.22474C21.893 6.05833 22.0909 5.92633 22.3087 5.83627C22.5265 5.74621 22.7599 5.69986 22.9956 5.69986C23.2313 5.69986 23.4648 5.74621 23.6825 5.83627C23.9003 5.92633 24.0982 6.05833 24.2649 6.22474C24.4316 6.39114 24.5638 6.5887 24.654 6.80612C24.7442 7.02354 24.7907 7.25657 24.7907 7.49191C24.7907 8.48315 23.9877 9.28479 22.9964 9.28479Z" fill="#989898"/>
<path d="M14.9883 20.4595C17.7513 20.4595 19.9911 18.2234 19.9911 15.4651C19.9911 12.7067 17.7513 10.4706 14.9883 10.4706C12.2254 10.4706 9.98556 12.7067 9.98556 15.4651C9.98556 18.2234 12.2254 20.4595 14.9883 20.4595Z" fill="#989898"/>
</svg>
