<svg width="30" height="31" viewBox="0 0 30 31" fill="none" xmlns="http://www.w3.org/2000/svg">
<path d="M29.9034 9.33804C29.8866 8.0784 29.6504 6.83129 29.2054 5.65249C28.8194 4.65817 28.23 3.75516 27.4747 3.00113C26.7195 2.24711 25.8149 1.65867 24.819 1.2734C23.6534 0.836581 22.422 0.600387 21.1773 0.574872C19.5746 0.503356 19.0665 0.483398 14.9983 0.483398C10.9301 0.483398 10.4087 0.483399 8.81775 0.574872C7.57357 0.600575 6.34276 0.836766 5.1777 1.2734C4.18157 1.6584 3.27691 2.24675 2.5216 3.00081C1.76629 3.75486 1.17696 4.65802 0.791315 5.65249C0.352895 6.81525 0.11682 8.04429 0.0932919 9.28648C0.021657 10.8881 0 11.3954 0 15.4568C0 19.5182 -9.30909e-09 20.0371 0.0932919 21.6271C0.118281 22.8711 0.353176 24.0985 0.791315 25.2644C1.17761 26.2586 1.76737 27.1614 2.52294 27.9151C3.2785 28.6688 4.18325 29.257 5.17936 29.6418C6.34124 30.0962 7.57226 30.3493 8.81942 30.3903C10.4237 30.4618 10.9318 30.4834 15 30.4834C19.0682 30.4834 19.5896 30.4834 21.1806 30.3903C22.4253 30.3658 23.6568 30.1301 24.8223 29.6934C25.818 29.3077 26.7223 28.7191 27.4775 27.9651C28.2327 27.2112 28.8223 26.3084 29.2087 25.3143C29.6468 24.1501 29.8817 22.9227 29.9067 21.677C29.9783 20.077 30 19.5698 30 15.5067C29.9967 11.4453 29.9967 10.9297 29.9034 9.33804ZM14.9883 23.1372C10.7336 23.1372 7.28676 19.6962 7.28676 15.4485C7.28676 11.2008 10.7336 7.75971 14.9883 7.75971C17.0309 7.75971 18.9899 8.56977 20.4342 10.0117C21.8785 11.4536 22.6899 13.4093 22.6899 15.4485C22.6899 17.4877 21.8785 19.4433 20.4342 20.8853C18.9899 22.3272 17.0309 23.1372 14.9883 23.1372ZM22.9964 9.26819C22.7605 9.2684 22.5269 9.22218 22.3089 9.13216C22.091 9.04214 21.8929 8.91008 21.7261 8.74355C21.5593 8.57702 21.427 8.37929 21.3368 8.16167C21.2467 7.94405 21.2004 7.71081 21.2006 7.47531C21.2006 7.23997 21.247 7.00694 21.3372 6.78952C21.4274 6.5721 21.5597 6.37454 21.7263 6.20813C21.893 6.04173 22.0909 5.90973 22.3087 5.81967C22.5265 5.72961 22.7599 5.68326 22.9956 5.68326C23.2313 5.68326 23.4648 5.72961 23.6825 5.81967C23.9003 5.90973 24.0982 6.04173 24.2649 6.20813C24.4316 6.37454 24.5638 6.5721 24.654 6.78952C24.7442 7.00694 24.7907 7.23997 24.7907 7.47531C24.7907 8.46655 23.9877 9.26819 22.9964 9.26819Z" fill="white"/>
<path d="M14.9883 20.4429C17.7513 20.4429 19.9911 18.2068 19.9911 15.4485C19.9911 12.6901 17.7513 10.454 14.9883 10.454C12.2254 10.454 9.98556 12.6901 9.98556 15.4485C9.98556 18.2068 12.2254 20.4429 14.9883 20.4429Z" fill="white"/>
</svg>
