<svg width="14" height="14" viewBox="0 0 14 14" fill="none" xmlns="http://www.w3.org/2000/svg">
<g clip-path="url(#clip0_10446_25587)">
<path d="M13.9853 7.00067C13.9853 8.33256 13.9939 9.66495 13.9793 10.9968C13.9758 11.3287 13.9346 11.6691 13.8486 11.9888C13.5586 13.0688 12.6554 13.825 11.5446 13.9457C11.2622 13.9764 10.9767 13.9965 10.6927 13.997C8.19669 14 5.70069 14.0045 3.20469 13.9889C2.78199 13.9864 2.3417 13.9502 1.94161 13.826C0.845405 13.4856 0.226683 12.7028 0.0603162 11.572C0.0140754 11.2583 0.0035204 10.9375 0.00301778 10.6197C2.07461e-06 8.17318 -0.00452148 5.7266 0.0110597 3.28003C0.0140754 2.84009 0.0452376 2.38255 0.169384 1.96524C0.501112 0.853572 1.28821 0.229108 2.42915 0.0586625C2.7262 0.0144171 3.03028 0.00335574 3.33085 0.00285295C5.81026 -0.000163782 8.28917 -0.0041861 10.7686 0.0108976C11.1913 0.0134115 11.6311 0.0470984 12.0327 0.167768C13.1434 0.50162 13.7979 1.28446 13.9295 2.42931C14.0155 3.17495 13.9863 3.93466 13.9954 4.68784C14.0044 5.45862 13.9974 6.22939 13.9974 7.00017C13.9934 7.00017 13.9894 7.00017 13.9853 7.00017V7.00067ZM11.7738 6.23291C11.7437 5.20018 11.2506 4.31829 10.4097 3.62344C9.47736 2.85316 8.38617 2.49317 7.18693 2.46149C5.72079 2.42328 4.40142 2.82652 3.32783 3.85975C1.8627 5.26957 1.85617 7.35011 3.29818 8.77904C4.04909 9.52266 4.96486 9.93696 6.00176 10.1094C6.67175 10.221 6.73105 10.3271 6.6255 10.9999C6.59987 11.1628 6.63807 11.3357 6.64712 11.5037C6.82303 11.4805 6.99945 11.4584 7.17537 11.4338C7.19949 11.4302 7.22211 11.4162 7.24473 11.4051C8.01876 11.0376 8.75359 10.6062 9.42056 10.0652C10.1805 9.44875 10.8591 8.75993 11.3325 7.89161C11.6009 7.39938 11.7698 6.87799 11.7728 6.23241L11.7738 6.23291Z" fill="#2F2F2F"/>
<path d="M6.97281 6.35459C6.97281 6.67989 6.96125 7.0062 6.97683 7.331C6.98789 7.55927 6.86274 7.56128 6.69487 7.5653C6.51845 7.56983 6.43753 7.5276 6.44155 7.32899C6.4526 6.75984 6.44004 6.18967 6.45009 5.62052C6.4521 5.51292 6.49885 5.32689 6.55564 5.31432C6.72251 5.27711 6.90948 5.24342 7.04418 5.44655C7.26132 5.77437 7.5076 6.08258 7.74282 6.39833C7.7765 6.44408 7.81621 6.48481 7.90316 6.58637C7.90316 6.20224 7.91422 5.88096 7.89914 5.56119C7.88909 5.35102 7.96297 5.29018 8.17005 5.28767C8.38969 5.28516 8.43794 5.37163 8.43493 5.56973C8.42538 6.13085 8.43644 6.69246 8.42689 7.25357C8.42538 7.35464 8.37662 7.53313 8.32787 7.54117C8.16854 7.56732 7.98408 7.62765 7.85089 7.4381C7.61063 7.0952 7.35531 6.76336 7.1055 6.42699C7.08238 6.39582 7.05424 6.36766 7.0281 6.3385C7.0095 6.34403 6.99141 6.34956 6.97281 6.35509V6.35459Z" fill="#2F2F2F"/>
<path d="M9.28385 5.81761V6.16353C9.5432 6.16353 9.79953 6.17358 10.0549 6.16051C10.267 6.14995 10.277 6.26861 10.276 6.429C10.275 6.58738 10.2695 6.71006 10.0554 6.69799C9.80657 6.68442 9.55677 6.69498 9.29038 6.69498V7.04291C9.54973 7.04291 9.80607 7.05296 10.0614 7.03989C10.2554 7.02983 10.282 7.12888 10.2755 7.28575C10.2695 7.43106 10.2971 7.57234 10.0684 7.5643C9.69248 7.55123 9.31551 7.55726 8.93905 7.56229C8.79782 7.5643 8.74756 7.50698 8.74856 7.36871C8.75258 6.74123 8.75258 6.11325 8.74856 5.48577C8.74756 5.3465 8.80033 5.29069 8.94056 5.2927C9.32557 5.29772 9.71007 5.29873 10.0951 5.2927C10.3177 5.28968 10.2665 5.44655 10.273 5.57225C10.28 5.70498 10.282 5.82616 10.0885 5.81962C9.83019 5.81057 9.57135 5.81761 9.28385 5.81761Z" fill="#2F2F2F"/>
<path d="M4.32251 7.04291C4.62308 7.04291 4.88092 7.04894 5.13826 7.04089C5.3574 7.03436 5.31769 7.1867 5.32222 7.31542C5.32674 7.44715 5.32825 7.56681 5.13524 7.56279C4.75124 7.55475 4.36674 7.55726 3.98274 7.56229C3.84452 7.5643 3.78773 7.51201 3.78823 7.37173C3.79175 6.74525 3.79426 6.11878 3.78722 5.4923C3.78471 5.26203 3.9355 5.30124 4.07573 5.2927C4.23455 5.28314 4.32905 5.31985 4.32553 5.5089C4.31698 5.91817 4.32301 6.32744 4.32301 6.73671C4.32301 6.82721 4.32301 6.91771 4.32301 7.04341L4.32251 7.04291Z" fill="#2F2F2F"/>
<path d="M6.1259 6.42146C6.1259 6.72213 6.11434 7.0233 6.12992 7.32346C6.14098 7.54016 6.03493 7.56782 5.8565 7.5648C5.69164 7.56229 5.59112 7.54419 5.59464 7.33704C5.60569 6.72766 5.60519 6.11727 5.59464 5.50789C5.59112 5.29069 5.71325 5.29521 5.86706 5.29069C6.03543 5.28566 6.13746 5.31482 6.12842 5.51895C6.11585 5.81912 6.1249 6.12029 6.1249 6.42096L6.1259 6.42146Z" fill="#2F2F2F"/>
</g>
<defs>
<clipPath id="clip0_10446_25587">
<rect width="14" height="14" fill="white"/>
</clipPath>
</defs>
</svg>
