<svg width="14" height="14" viewBox="0 0 14 14" fill="none" xmlns="http://www.w3.org/2000/svg">
<g clip-path="url(#clip0_10446_25581)">
<path fill-rule="evenodd" clip-rule="evenodd" d="M0.0590429 0.293316C0.1511 0.113283 0.33626 8.0237e-09 0.538464 8.0237e-09H4.12821C4.3011 8.0237e-09 4.46347 0.0830187 4.56471 0.223172L8.10877 5.12973L13.0808 0.157712C13.2911 -0.0525706 13.632 -0.0525706 13.8423 0.157712C14.0526 0.367994 14.0526 0.708929 13.8423 0.919211L8.74746 6.01404L13.8981 13.1463C14.0164 13.3102 14.033 13.5267 13.941 13.7067C13.8489 13.8867 13.6637 14 13.4615 14H9.87179C9.6989 14 9.53653 13.917 9.43529 13.7768L5.89123 8.87027L0.919213 13.8423C0.708931 14.0526 0.367996 14.0526 0.157714 13.8423C-0.0525684 13.632 -0.0525684 13.2911 0.157714 13.0808L5.25254 7.98596L0.101931 0.853707C-0.0164507 0.68978 -0.0330146 0.473348 0.0590429 0.293316ZM6.39407 7.72722L10.1471 12.9231H12.4085L7.60596 6.27283L7.60593 6.27278L3.8529 1.07692H1.59151L6.39404 7.72717L6.39407 7.72722Z" fill="#2F2F2F"/>
</g>
<defs>
<clipPath id="clip0_10446_25581">
<rect width="14" height="14" fill="white"/>
</clipPath>
</defs>
</svg>
