<svg width="14" height="14" viewBox="0 0 14 14" fill="none" xmlns="http://www.w3.org/2000/svg">
<path fill-rule="evenodd" clip-rule="evenodd" d="M7 1C7.5985 1 8.2124 1.0165 8.8074 1.0435L9.5102 1.0795L10.1829 1.12225L10.8129 1.168L11.3883 1.216C12.0128 1.26692 12.6006 1.55233 13.048 2.02195C13.4954 2.49158 13.7738 3.1153 13.8341 3.78325L13.8621 4.102L13.9146 4.7845C13.9636 5.49175 14 6.26275 14 7C14 7.73725 13.9636 8.50825 13.9146 9.2155L13.8621 9.898L13.8341 10.2167C13.7737 10.8848 13.4953 11.5086 13.0477 11.9783C12.6002 12.4479 12.0123 12.7333 11.3876 12.784L10.8136 12.8312L10.1836 12.8778L9.5102 12.9205L8.8074 12.9565C8.20528 12.9844 7.60268 12.9989 7 13C6.39732 12.9989 5.79472 12.9844 5.1926 12.9565L4.4898 12.9205L3.8171 12.8778L3.1871 12.8312L2.6117 12.784C1.98717 12.7331 1.39944 12.4477 0.952031 11.978C0.504622 11.5084 0.226234 10.8847 0.1659 10.2167L0.1379 9.898L0.0854 9.2155C0.0320829 8.47834 0.00359775 7.73936 0 7C0 6.26275 0.0364 5.49175 0.0854 4.7845L0.1379 4.102L0.1659 3.78325C0.22621 3.11541 0.504498 2.49179 0.951764 2.02218C1.39903 1.55257 1.98659 1.26709 2.611 1.216L3.1857 1.168L3.8157 1.12225L4.4891 1.0795L5.1919 1.0435C5.79425 1.01555 6.39708 1.00104 7 1ZM5.6 5.18125V8.81875C5.6 9.16525 5.95 9.38125 6.23 9.20875L9.17 7.39C9.23397 7.35054 9.28711 7.29372 9.32406 7.22525C9.36101 7.15678 9.38047 7.07909 9.38047 7C9.38047 6.92091 9.36101 6.84322 9.32406 6.77475C9.28711 6.70628 9.23397 6.64946 9.17 6.61L6.23 4.792C6.16613 4.75249 6.09368 4.7317 6.01993 4.73171C5.94618 4.73172 5.87374 4.75254 5.80988 4.79207C5.74603 4.8316 5.69301 4.88845 5.65617 4.9569C5.61932 5.02535 5.59995 5.10298 5.6 5.182V5.18125Z" fill="#2F2F2F"/>
</svg>
