<svg width="14" height="15" viewBox="0 0 14 15" fill="none" xmlns="http://www.w3.org/2000/svg">
<g clip-path="url(#clip0_10446_25741)">
<path d="M6.04683 1.78278C5.45599 1.78278 4.88934 2.01749 4.47155 2.43528C4.05376 2.85307 3.81905 3.41972 3.81905 4.01056C3.81905 4.60141 4.05376 5.16805 4.47155 5.58584C4.88934 6.00363 5.45599 6.23834 6.04683 6.23834C6.63767 6.23834 7.20432 6.00363 7.62211 5.58584C8.0399 5.16805 8.27461 4.60141 8.27461 4.01056C8.27461 3.41972 8.0399 2.85307 7.62211 2.43528C7.20432 2.01749 6.63767 1.78278 6.04683 1.78278ZM2.54603 4.01056C2.54603 3.08209 2.91487 2.19165 3.57139 1.53513C4.22792 0.878598 5.11836 0.509766 6.04683 0.509766C6.9753 0.509766 7.86574 0.878598 8.52227 1.53513C9.17879 2.19165 9.54762 3.08209 9.54762 4.01056C9.54762 4.93903 9.17879 5.82947 8.52227 6.486C7.86574 7.14252 6.9753 7.51136 6.04683 7.51136C5.11836 7.51136 4.22792 7.14252 3.57139 6.486C2.91487 5.82947 2.54603 4.93903 2.54603 4.01056ZM7.88125 7.82961H12.487L13.8116 10.4788L10.1841 14.5098L6.55604 10.4788L7.88125 7.82961ZM8.66797 9.10263L8.08302 10.2725L10.1841 12.6066L12.2846 10.2725L11.7003 9.10263H8.66797ZM3.81905 9.42088C3.1438 9.42088 2.49621 9.68912 2.01873 10.1666C1.54126 10.6441 1.27302 11.2917 1.27302 11.9669H5.7604V13.2399H0V11.9669C0 10.954 0.402363 9.98265 1.11857 9.26644C1.83478 8.55023 2.80617 8.14787 3.81905 8.14787H5.72857V9.42088H3.81905Z" fill="#2F2F2F"/>
</g>
<defs>
<clipPath id="clip0_10446_25741">
<rect width="14" height="14" fill="white" transform="translate(0 0.509766)"/>
</clipPath>
</defs>
</svg>
