<svg width="14" height="15" viewBox="0 0 14 15" fill="none" xmlns="http://www.w3.org/2000/svg">
<path d="M3.20833 4.59342C3.20833 4.36361 3.2536 4.13605 3.34154 3.92373C3.42949 3.71141 3.55839 3.51849 3.7209 3.35599C3.8834 3.19349 4.07632 3.06458 4.28864 2.97664C4.50096 2.88869 4.72852 2.84342 4.95833 2.84342C5.18815 2.84342 5.41571 2.88869 5.62803 2.97664C5.84035 3.06458 6.03327 3.19349 6.19577 3.35599C6.35827 3.51849 6.48718 3.71141 6.57512 3.92373C6.66307 4.13605 6.70833 4.36361 6.70833 4.59342C6.70833 5.05755 6.52396 5.50267 6.19577 5.83086C5.86758 6.15905 5.42246 6.34342 4.95833 6.34342C4.4942 6.34342 4.04909 6.15905 3.7209 5.83086C3.39271 5.50267 3.20833 5.05755 3.20833 4.59342ZM4.95833 1.67676C4.18478 1.67676 3.44292 1.98405 2.89594 2.53103C2.34896 3.07801 2.04167 3.81988 2.04167 4.59342C2.04167 5.36697 2.34896 6.10884 2.89594 6.65582C3.44292 7.2028 4.18478 7.51009 4.95833 7.51009C5.73188 7.51009 6.47375 7.2028 7.02073 6.65582C7.56771 6.10884 7.875 5.36697 7.875 4.59342C7.875 3.81988 7.56771 3.07801 7.02073 2.53103C6.47375 1.98405 5.73188 1.67676 4.95833 1.67676ZM9.04167 1.67676H8.45833V2.84342H9.04167C9.27148 2.84342 9.49904 2.88869 9.71136 2.97664C9.92368 3.06458 10.1166 3.19349 10.2791 3.35599C10.4416 3.51849 10.5705 3.71141 10.6585 3.92373C10.7464 4.13605 10.7917 4.36361 10.7917 4.59342C10.7917 4.82324 10.7464 5.0508 10.6585 5.26312C10.5705 5.47544 10.4416 5.66836 10.2791 5.83086C10.1166 5.99336 9.92368 6.12227 9.71136 6.21021C9.49904 6.29816 9.27148 6.34342 9.04167 6.34342H8.45833V7.51009H9.04167C9.81521 7.51009 10.5571 7.2028 11.1041 6.65582C11.651 6.10884 11.9583 5.36697 11.9583 4.59342C11.9583 3.81988 11.651 3.07801 11.1041 2.53103C10.5571 1.98405 9.81521 1.67676 9.04167 1.67676ZM0 11.5934C0 10.8199 0.307291 10.078 0.854272 9.53103C1.40125 8.98405 2.14312 8.67676 2.91667 8.67676H7C7.77355 8.67676 8.51541 8.98405 9.06239 9.53103C9.60938 10.078 9.91667 10.8199 9.91667 11.5934V12.7601H8.75V11.5934C8.75 11.1293 8.56563 10.6842 8.23744 10.356C7.90925 10.0278 7.46413 9.84342 7 9.84342H2.91667C2.45254 9.84342 2.00742 10.0278 1.67923 10.356C1.35104 10.6842 1.16667 11.1293 1.16667 11.5934V12.7601H0V12.1768V11.5934ZM14 11.5934C14 11.2104 13.9246 10.8311 13.778 10.4773C13.6314 10.1234 13.4166 9.80187 13.1457 9.53103C12.8749 9.26019 12.5534 9.04535 12.1995 8.89878C11.8456 8.7522 11.4664 8.67676 11.0833 8.67676H10.5V9.84342H11.0833C11.5475 9.84342 11.9926 10.0278 12.3208 10.356C12.649 10.6842 12.8333 11.1293 12.8333 11.5934V12.7601H14V12.1768V11.5934Z" fill="#2F2F2F"/>
</svg>
