<svg width="14" height="15" viewBox="0 0 14 15" fill="none" xmlns="http://www.w3.org/2000/svg">
<g clip-path="url(#clip0_10446_25780)">
<path d="M10.8192 11.4178C11.1412 11.4178 11.415 11.3052 11.6406 11.0801C11.8663 10.8549 11.9789 10.5811 11.9784 10.2586C11.9778 9.93609 11.8653 9.66252 11.6406 9.4379C11.416 9.21327 11.1422 9.10044 10.8192 9.09941C10.4961 9.09838 10.2226 9.21121 9.99845 9.4379C9.77434 9.66458 9.66151 9.93815 9.65997 10.2586C9.65842 10.5791 9.77125 10.8529 9.99845 11.0801C10.2257 11.3073 10.4992 11.4199 10.8192 11.4178ZM10.8192 13.7362C11.2056 13.7362 11.5662 13.646 11.9011 13.4657C12.236 13.2854 12.5129 13.0342 12.7318 12.7122C12.4356 12.5319 12.1265 12.4 11.8045 12.3166C11.4825 12.2331 11.154 12.1911 10.8192 12.1906C10.4843 12.1901 10.1558 12.2321 9.83385 12.3166C9.51185 12.4011 9.20273 12.533 8.90649 12.7122C9.12545 13.0342 9.40237 13.2854 9.73725 13.4657C10.0721 13.646 10.4328 13.7362 10.8192 13.7362ZM1.24807 12.8745C0.902885 12.8745 0.608449 12.7529 0.364761 12.5098C0.121587 12.2666 0 11.9722 0 11.6265V1.75783C0 1.41265 0.121587 1.11822 0.364761 0.874526C0.607934 0.631353 0.90237 0.509766 1.24807 0.509766H11.1167C11.4619 0.509766 11.7563 0.631353 12 0.874526C12.2432 1.1177 12.3648 1.41214 12.3648 1.75783V6.35598C12.2293 6.30961 12.0994 6.27174 11.9753 6.24238C11.8511 6.21301 11.7233 6.18416 11.592 6.15582V1.75861C11.592 1.6396 11.5425 1.53037 11.4436 1.43094C11.3447 1.33151 11.2357 1.28205 11.1167 1.28256H1.24807C1.12957 1.28256 1.02061 1.33202 0.921175 1.43094C0.821741 1.52986 0.772282 1.63882 0.772798 1.75783V11.6265C0.772798 11.745 0.822257 11.8539 0.921175 11.9534C1.02009 12.0528 1.12906 12.1022 1.24807 12.1017H5.62674C5.64529 12.246 5.66924 12.3802 5.69861 12.5044C5.72797 12.6285 5.76584 12.7519 5.81221 12.8745H1.24807ZM0.772798 11.3289V12.1017V1.28256V6.15582V6.09787V11.3289ZM2.70479 9.99199H5.76507C5.79341 9.85959 5.83205 9.73156 5.88099 9.60791C5.92993 9.48426 5.98145 9.35443 6.03555 9.21842H2.70479V9.99199ZM2.70479 7.07855H7.7898C8.04379 6.90029 8.29366 6.74908 8.53941 6.62491C8.78516 6.50075 9.04972 6.40389 9.33308 6.33434V6.30575H2.70479V7.07855ZM2.70479 4.1651H9.65997V3.3923H2.70479V4.1651ZM10.8192 14.5098C9.95827 14.5098 9.22772 14.2099 8.62751 13.6102C8.02731 13.0105 7.72746 12.2797 7.72798 11.4178C7.72849 10.5559 8.02834 9.82558 8.62751 9.22692C9.22669 8.62826 9.95724 8.32816 10.8192 8.32661C11.6811 8.32507 12.4116 8.62517 13.0108 9.22692C13.61 9.82867 13.9098 10.559 13.9104 11.4178C13.9109 12.2766 13.611 13.0072 13.0108 13.6095C12.4106 14.2117 11.6801 14.5123 10.8192 14.5098Z" fill="#2F2F2F"/>
</g>
<defs>
<clipPath id="clip0_10446_25780">
<rect width="14" height="14" fill="white" transform="translate(0 0.509766)"/>
</clipPath>
</defs>
</svg>
