<svg width="14" height="15" viewBox="0 0 14 15" fill="none" xmlns="http://www.w3.org/2000/svg">
<g clip-path="url(#clip0_10446_25774)">
<path d="M5.56105 6.29636C4.923 6.29636 4.3765 6.06888 3.92156 5.61394C3.46662 5.159 3.2394 4.61276 3.23992 3.97522C3.24043 3.33768 3.46765 2.79093 3.92156 2.33495C4.37547 1.87898 4.92197 1.65228 5.56105 1.65486C6.20014 1.65744 6.74664 1.88439 7.20055 2.33572C7.65446 2.78706 7.88167 3.33381 7.88219 3.97599C7.88271 4.61817 7.65549 5.16442 7.20055 5.61472C6.74561 6.06502 6.19911 6.29171 5.56105 6.29636ZM5.56105 5.52342C5.9866 5.52342 6.35101 5.37177 6.65431 5.06848C6.9576 4.76518 7.10899 4.40076 7.10848 3.97522C7.10796 3.54968 6.95657 3.18526 6.65431 2.88197C6.35205 2.57867 5.98763 2.42728 5.56105 2.4278C5.13448 2.42831 4.77032 2.5797 4.46857 2.88197C4.16683 3.18423 4.01518 3.54865 4.01363 3.97522C4.01208 4.40179 4.16373 4.76595 4.46857 5.0677C4.77342 5.36945 5.13758 5.52187 5.56105 5.52342ZM13.1914 14.1758L11.4057 12.3909C11.1545 12.5652 10.894 12.6942 10.6242 12.7777C10.3545 12.8613 10.0862 12.9028 9.81956 12.9023C9.07835 12.9023 8.45113 12.6444 7.9379 12.1286C7.42467 11.6128 7.16805 10.9866 7.16805 10.25C7.16805 9.51345 7.42596 8.88855 7.94177 8.37532C8.45757 7.86209 9.08376 7.60548 9.82034 7.60548C10.5569 7.60548 11.1818 7.86286 11.695 8.37764C12.2083 8.89242 12.4649 9.51783 12.4649 10.2539C12.4649 10.5226 12.4234 10.7919 12.3403 11.0616C12.2573 11.3314 12.1283 11.5919 11.9535 11.8431L13.7384 13.6288C13.8106 13.701 13.8493 13.7898 13.8545 13.895C13.8596 14.0002 13.8209 14.0938 13.7384 14.1758C13.6559 14.2578 13.5646 14.2991 13.4645 14.2996C13.3645 14.3001 13.2734 14.2589 13.1914 14.1758ZM9.81647 12.1286C10.3478 12.1286 10.7932 11.9491 11.1527 11.5901C11.5122 11.2311 11.6917 10.7857 11.6912 10.2539C11.6907 9.72209 11.5112 9.27669 11.1527 8.91769C10.7942 8.55869 10.3488 8.37919 9.81647 8.37919C9.28416 8.37919 8.83876 8.55869 8.48027 8.91769C8.12178 9.27669 7.94228 9.72209 7.94177 10.2539C7.94125 10.7857 8.12075 11.2311 8.48027 11.5901C8.83979 11.9491 9.28519 12.1286 9.81647 12.1286ZM0.145071 11.0872V10.6214C0.145071 10.2923 0.2374 9.99264 0.42206 9.72235C0.606203 9.45258 0.857144 9.23594 1.17488 9.07243C1.68656 8.80886 2.34396 8.56307 3.14707 8.33509C3.95019 8.1071 4.79405 8.01064 5.67866 8.04572C5.78853 8.04984 5.88137 8.08827 5.95719 8.161C6.03302 8.23373 6.07067 8.32142 6.07016 8.42406C6.06964 8.52671 6.03199 8.61672 5.95719 8.69409C5.8824 8.77146 5.78956 8.81273 5.67866 8.81788C4.75536 8.80911 3.92801 8.91485 3.19659 9.1351C2.46517 9.35535 1.91584 9.56065 1.54858 9.75098C1.35 9.84537 1.19526 9.96942 1.08436 10.1231C0.973459 10.2768 0.918267 10.4429 0.918783 10.6214V11.1166H5.46047C5.56982 11.1166 5.66138 11.1537 5.73514 11.228C5.8089 11.3023 5.84604 11.3943 5.84655 11.5042C5.84707 11.6141 5.80993 11.7059 5.73514 11.7797C5.66035 11.8534 5.56853 11.8903 5.4597 11.8903H0.949731C0.722776 11.8903 0.531927 11.8132 0.377185 11.659C0.222442 11.5047 0.145071 11.3147 0.145071 11.0872Z" fill="#2F2F2F"/>
<path fill-rule="evenodd" clip-rule="evenodd" d="M5.56047 1.79993C4.96047 1.79751 4.45112 2.00861 4.02437 2.4373C3.59722 2.86639 3.38547 3.37651 3.38499 3.97534C3.3845 4.57396 3.59615 5.08337 4.02414 5.51136C4.45201 5.93923 4.96154 6.15116 5.56053 6.15128C6.16049 6.1468 6.67058 5.93516 7.0985 5.51161C7.52578 5.08868 7.7376 4.57966 7.73712 3.97611C7.73663 3.37237 7.52472 2.86263 7.09826 2.4386C6.67134 2.0141 6.16136 1.80235 5.56047 1.79993ZM3.81875 2.2326C4.29982 1.74934 4.88347 1.50705 5.56164 1.50979C6.23892 1.51252 6.82194 1.75468 7.30284 2.23285C7.7842 2.71148 8.02671 3.29526 8.02726 3.97588C8.02781 4.65669 7.7852 5.24014 7.3026 5.71782C6.82077 6.19474 6.23802 6.4365 5.56211 6.44142L5.56105 6.44143C4.88416 6.44143 4.30087 6.19842 3.81898 5.71652C3.33708 5.23463 3.0943 4.65155 3.09485 3.9751C3.09539 3.29885 3.33808 2.71546 3.81875 2.2326ZM5.56088 2.28273C6.02624 2.28216 6.42765 2.44903 6.75706 2.77956C7.08619 3.10981 7.25299 3.51091 7.25355 3.97504C7.25411 4.43946 7.08719 4.84076 6.75689 5.17106C6.42663 5.50131 6.02541 5.66849 5.56105 5.66849C5.09881 5.6668 4.69787 5.49879 4.36652 5.1708C4.03419 4.84185 3.86687 4.44042 3.86856 3.97469C3.87025 3.50982 4.03717 3.10877 4.3659 2.77947C4.69479 2.45003 5.09579 2.28329 5.56088 2.28273ZM6.55155 2.98437C6.27644 2.70831 5.94902 2.5724 5.56123 2.57287C5.17317 2.57334 4.84586 2.70937 4.57124 2.98446C4.29648 3.25969 4.16011 3.58748 4.1587 3.97575C4.15729 4.36316 4.29327 4.69006 4.57063 4.9646C4.84889 5.24004 5.1767 5.37687 5.56128 5.37835C5.94791 5.37829 6.27545 5.24217 6.55173 4.96589C6.82802 4.6896 6.96388 4.36206 6.96341 3.9754C6.96294 3.58845 6.82695 3.26071 6.55155 2.98437ZM9.82034 7.75055C9.12158 7.75055 8.53234 7.99235 8.04409 8.47816C7.55602 8.96378 7.31312 9.55152 7.31312 10.25C7.31312 10.9488 7.55492 11.538 8.04073 12.0263C8.52617 12.5141 9.11614 12.7572 9.81956 12.7572C10.0707 12.7577 10.3247 12.7186 10.5813 12.6392C10.8358 12.5603 11.0829 12.4383 11.323 12.2717L11.4225 12.2026L13.2946 14.0739C13.3541 14.1342 13.4093 14.1548 13.4638 14.1546C13.5196 14.1543 13.5759 14.1328 13.6362 14.0729C13.6929 14.0165 13.7125 13.9617 13.7096 13.9021C13.7061 13.8316 13.6817 13.7773 13.6358 13.7314L11.7651 11.8598L11.8344 11.7602C12.0014 11.5203 12.1234 11.2732 12.2017 11.019C12.2807 10.7623 12.3198 10.5074 12.3198 10.2539C12.3198 9.55569 12.078 8.96727 11.5923 8.48007C11.1067 7.993 10.5189 7.75055 9.82034 7.75055ZM7.83944 8.27248C8.38281 7.73183 9.04594 7.4604 9.82034 7.4604C10.5949 7.4604 11.2569 7.73273 11.7978 8.27521C12.3385 8.81756 12.61 9.47998 12.61 10.2539C12.61 10.5378 12.5661 10.8214 12.479 11.1043C12.4024 11.3531 12.2892 11.5933 12.1403 11.8248L13.841 13.5262C13.9395 13.6248 13.9925 13.7479 13.9994 13.8879C14.0068 14.0387 13.949 14.1711 13.8407 14.2787C13.7359 14.3829 13.6096 14.444 13.4653 14.4447C13.3198 14.4454 13.1929 14.3837 13.0885 14.2781L11.3873 12.5776C11.1559 12.7261 10.9158 12.8393 10.6671 12.9163C10.3843 13.0039 10.1016 13.0479 9.81956 13.0474M5.67291 8.19067C4.80268 8.15617 3.97419 8.25109 3.18669 8.47464C2.3891 8.70106 1.74155 8.94372 1.24131 9.2014C0.942973 9.35493 0.711161 9.55614 0.541878 9.80414C0.373786 10.0502 0.290142 10.3214 0.290142 10.6214V11.0872C0.290142 11.2777 0.35329 11.4303 0.479594 11.5562C0.605989 11.6822 0.759505 11.7452 0.949731 11.7452H5.4597C5.53194 11.7452 5.5867 11.7223 5.63327 11.6764C5.67886 11.6314 5.70183 11.5777 5.70148 11.5049C5.70114 11.431 5.6777 11.376 5.6322 11.3302C5.587 11.2847 5.5331 11.2617 5.46047 11.2617H0.773712V10.6216M5.67561 8.67278C5.74905 8.6686 5.80549 8.6423 5.85289 8.59326C5.9031 8.54132 5.92477 8.48666 5.92509 8.42333C5.9254 8.36151 5.90465 8.31162 5.85677 8.2657C5.80788 8.2188 5.74906 8.19353 5.67291 8.19067M5.68441 7.90076C4.78541 7.86512 3.92618 7.96311 3.10746 8.19553C2.29882 8.42508 1.63157 8.67399 1.10845 8.94347C0.771357 9.11695 0.501265 9.34901 0.302275 9.64051C0.101049 9.93505 0 10.2633 0 10.6214V11.0872C0 11.3516 0.091595 11.5791 0.274775 11.7617C0.457865 11.9442 0.686047 12.0354 0.949731 12.0354H5.4597C5.60513 12.0354 5.73399 11.9845 5.83701 11.8829C5.941 11.7804 5.99231 11.6504 5.99162 11.5035C5.99094 11.3577 5.9401 11.2285 5.83808 11.1258C5.73576 11.0227 5.60655 10.9715 5.46047 10.9715H1.06385L1.06385 10.6214C1.06343 10.4755 1.10784 10.3385 1.202 10.208C1.29649 10.0771 1.43077 9.96761 1.61086 9.882L1.61534 9.87978C1.97055 9.69569 2.50969 9.49345 3.23842 9.27401C3.95326 9.05875 4.76567 8.95429 5.67728 8.96295L5.6854 8.9628C5.83195 8.95598 5.96011 8.8998 6.0615 8.79492C6.16088 8.69211 6.21451 8.56676 6.21523 8.42479C6.21595 8.28132 6.16138 8.15584 6.05762 8.05631C5.95494 7.95782 5.82787 7.90621 5.68441 7.90076ZM8.37761 8.81518C8.76477 8.42747 9.24776 8.23412 9.81647 8.23412C10.3852 8.23412 10.8682 8.42747 11.2553 8.81518C11.6424 9.20277 11.8357 9.68562 11.8362 10.2538C11.8368 10.8221 11.6434 11.3051 11.2552 11.6927C10.8671 12.0803 10.3842 12.2737 9.81647 12.2737C9.2487 12.2737 8.76583 12.0803 8.37776 11.6927C7.98957 11.3051 7.79614 10.8221 7.79669 10.2538C7.79725 9.68562 7.99058 9.20277 8.37761 8.81518ZM9.81647 8.52426C9.32056 8.52426 8.91274 8.6899 8.58292 9.0202C8.25298 9.35061 8.08732 9.75856 8.08684 10.254C8.08636 10.7493 8.25193 11.1571 8.58278 11.4874C8.91374 11.8179 9.32167 11.9835 9.81647 11.9835C10.3113 11.9835 10.7192 11.8179 11.0502 11.4874C11.381 11.1571 11.5466 10.7493 11.5461 10.254C11.5456 9.75856 11.38 9.35061 11.05 9.0202C10.7202 8.6899 10.3124 8.52426 9.81647 8.52426Z" fill="#2F2F2F"/>
</g>
<defs>
<clipPath id="clip0_10446_25774">
<rect width="14" height="14" fill="white" transform="translate(0 0.509766)"/>
</clipPath>
</defs>
</svg>
