<svg width="14" height="15" viewBox="0 0 14 15" fill="none" xmlns="http://www.w3.org/2000/svg">
<g clip-path="url(#clip0_10446_25809)">
<path d="M4.5 8.90977C4.30167 8.90977 4.13553 8.84257 4.0016 8.70817C3.86767 8.57377 3.80047 8.40763 3.8 8.20977C3.79953 8.0119 3.86673 7.84577 4.0016 7.71137C4.13647 7.57697 4.3026 7.50977 4.5 7.50977C4.6974 7.50977 4.86377 7.57697 4.9991 7.71137C5.13443 7.84577 5.2014 8.0119 5.2 8.20977C5.1986 8.40763 5.1314 8.574 4.9984 8.70887C4.8654 8.84373 4.69927 8.9107 4.5 8.90977ZM7.3 8.90977C7.10167 8.90977 6.93553 8.84257 6.8016 8.70817C6.66767 8.57377 6.60047 8.40763 6.6 8.20977C6.59953 8.0119 6.66673 7.84577 6.8016 7.71137C6.93647 7.57697 7.1026 7.50977 7.3 7.50977C7.4974 7.50977 7.66376 7.57697 7.7991 7.71137C7.93443 7.84577 8.0014 8.0119 8 8.20977C7.9986 8.40763 7.9314 8.574 7.7984 8.70887C7.6654 8.84373 7.49926 8.9107 7.3 8.90977ZM10.1 8.90977C9.90166 8.90977 9.73553 8.84257 9.6016 8.70817C9.46766 8.57377 9.40046 8.40763 9.4 8.20977C9.39953 8.0119 9.46673 7.84577 9.6016 7.71137C9.73646 7.57697 9.9026 7.50977 10.1 7.50977C10.2974 7.50977 10.4638 7.57697 10.5991 7.71137C10.7344 7.84577 10.8014 8.0119 10.8 8.20977C10.7986 8.40763 10.7314 8.574 10.5984 8.70887C10.4654 8.84373 10.2993 8.9107 10.1 8.90977ZM2.4 14.5098C2.015 14.5098 1.68553 14.3728 1.4116 14.0989C1.13767 13.8249 1.00047 13.4952 1 13.1098V3.30977C1 2.92477 1.1372 2.5953 1.4116 2.32137C1.686 2.04743 2.01547 1.91023 2.4 1.90977H3.1V1.20977C3.1 1.01143 3.1672 0.845301 3.3016 0.711368C3.436 0.577435 3.60213 0.510235 3.8 0.509768C3.99787 0.509301 4.16423 0.576501 4.2991 0.711368C4.43397 0.846235 4.50093 1.01237 4.5 1.20977V1.90977H10.1V1.20977C10.1 1.01143 10.1672 0.845301 10.3016 0.711368C10.436 0.577435 10.6021 0.510235 10.8 0.509768C10.9979 0.509301 11.1642 0.576501 11.2991 0.711368C11.434 0.846235 11.5009 1.01237 11.5 1.20977V1.90977H12.2C12.585 1.90977 12.9147 2.04697 13.1891 2.32137C13.4635 2.59577 13.6005 2.92523 13.6 3.30977V13.1098C13.6 13.4948 13.463 13.8245 13.1891 14.0989C12.9152 14.3733 12.5855 14.5102 12.2 14.5098H2.4ZM2.4 13.1098H12.2V6.10977H2.4V13.1098ZM2.4 4.70977H12.2V3.30977H2.4V4.70977Z" fill="#2F2F2F"/>
</g>
<defs>
<clipPath id="clip0_10446_25809">
<rect width="14" height="14" fill="white" transform="translate(0 0.509766)"/>
</clipPath>
</defs>
</svg>
