<svg width="14" height="14" viewBox="0 0 14 14" fill="none" xmlns="http://www.w3.org/2000/svg">
<path d="M5.0603 11.8416C4.03213 11.8416 3.09655 11.3053 2.61914 10.4779C2.58787 10.4226 2.52895 10.3841 2.46641 10.3829C1.10634 10.3589 0 9.23209 0 7.87322C0 6.60814 0.946401 5.53788 2.20186 5.38395C2.29686 5.37193 2.3654 5.28895 2.35939 5.19395C2.35578 5.13383 2.35338 5.0737 2.35338 5.01357C2.35338 3.35166 3.70503 2 5.36695 2C6.48892 2 7.51108 2.6169 8.03419 3.61141C8.05944 3.65951 8.10393 3.69318 8.15685 3.704C8.16887 3.70641 8.1821 3.70761 8.19413 3.70761C8.23501 3.70761 8.2747 3.69438 8.30596 3.66793C8.69077 3.36248 9.15255 3.20014 9.64199 3.20014C10.8277 3.20014 11.7909 4.16458 11.7909 5.34908C11.7909 5.55472 11.7609 5.76035 11.7007 5.96117C11.6839 6.0189 11.6971 6.08263 11.7356 6.12833C11.7705 6.16922 11.821 6.19206 11.8739 6.19206C11.8811 6.19206 11.8883 6.19206 11.8943 6.19086C11.9761 6.18124 12.0483 6.17643 12.1144 6.17643C13.1534 6.17643 14 7.02182 14 8.06202C14 9.10222 13.1546 9.9476 12.1144 9.9476C11.9004 9.9476 11.6863 9.90912 11.4771 9.83456C11.4566 9.82735 11.4362 9.82374 11.4157 9.82374C11.3448 9.82374 11.2774 9.86583 11.2486 9.93558C10.9239 10.7305 10.1603 11.2439 9.30287 11.2439C8.71603 11.2439 8.15083 10.9938 7.75279 10.5573C7.71792 10.52 7.66982 10.4984 7.61931 10.4984H7.60488C7.54956 10.5032 7.49906 10.5417 7.46899 10.5898C6.97234 11.3558 6.05841 11.8404 5.08194 11.8404H5.0603V11.8416Z" fill="#2F2F2F"/>
</svg>
