<svg width="14" height="14" viewBox="0 0 14 14" fill="none" xmlns="http://www.w3.org/2000/svg">
<path d="M12.6 5.78947V5.10526L8.4 1H1.4C0.623 1 0 1.60895 0 2.36842V11.9474C0 12.7068 0.63 13.3158 1.4 13.3158H5.6V12.0363L11.473 6.29579C11.781 5.99474 12.173 5.83053 12.6 5.78947ZM7.7 2.02632L11.55 5.78947H7.7V2.02632ZM13.895 8.65632L13.209 9.32684L11.781 7.93105L12.467 7.26053C12.6 7.12368 12.831 7.12368 12.971 7.26053L13.895 8.16368C14.035 8.30053 14.035 8.52632 13.895 8.65632ZM11.291 8.41L12.719 9.80579L8.428 14H7V12.6042L11.291 8.41Z" fill="#2F2F2F"/>
</svg>
