<svg width="44" height="45" viewBox="0 0 44 45" fill="none" xmlns="http://www.w3.org/2000/svg">
<rect y="0.5" width="44" height="44" rx="22" fill="url(#paint0_linear_10557_10283)"/>
<g clip-path="url(#clip0_10557_10283)">
<path d="M22.83 22.0156C23.3269 22.6645 23.7791 23.2112 24.1797 23.7933C24.4214 24.1448 24.6961 24.2606 25.1186 24.2564C27.3177 24.2344 29.5167 24.2547 31.7158 24.2378C32.1028 24.2344 32.2186 24.3425 32.2161 24.7354C32.1992 27.2711 32.2026 29.8076 32.2127 32.3441C32.2135 32.6432 32.1434 32.8004 31.8332 32.8908C28.9716 33.7189 26.1142 34.563 23.2542 35.4011C23.1283 35.4383 22.999 35.4603 22.83 35.4983V22.0156Z" fill="white"/>
<path d="M22.1378 22.0147V35.5C21.9578 35.4561 21.8158 35.4282 21.6772 35.3868C18.8452 34.5545 16.0156 33.7163 13.1811 32.8942C12.8743 32.8055 12.7526 32.6863 12.7543 32.3458C12.7703 29.7966 12.7686 27.2483 12.7543 24.6991C12.7526 24.3417 12.8565 24.2411 13.2106 24.2428C15.4765 24.2564 17.7423 24.2437 20.0081 24.2538C20.3073 24.2555 20.5059 24.1727 20.685 23.9243C21.1304 23.3066 21.6054 22.7101 22.1378 22.0147Z" fill="white"/>
<path d="M22.5046 11.4529C22.7176 11.1555 22.9018 10.8547 23.1292 10.5911C24.0267 9.54675 25.253 9.23665 26.3618 9.75545C27.4935 10.2852 28.0859 11.4935 27.878 12.8277C27.7005 13.9641 27.1808 14.9485 26.5342 15.8745C25.3992 17.4985 23.9929 18.8808 22.595 20.2699C22.568 20.2961 22.5274 20.3088 22.486 20.3307C21.8708 19.7258 21.242 19.1377 20.6487 18.5167C19.594 17.4123 18.5832 16.2691 17.8403 14.9214C17.3729 14.0731 17.0256 13.1825 17.0585 12.1923C17.0966 11.0507 17.6206 10.1974 18.6736 9.73517C19.7258 9.27299 20.6935 9.51295 21.5158 10.2717C21.8851 10.6122 22.1691 11.0457 22.5046 11.4538V11.4529Z" fill="white"/>
<path d="M23.1351 21.3979C23.3548 21.3852 23.4824 21.3709 23.6101 21.3709C26.3872 21.3692 29.1651 21.3743 31.9423 21.3624C32.2583 21.3607 32.4637 21.4571 32.6496 21.7139C33.0967 22.335 33.5734 22.9357 34.0957 23.6201C33.8742 23.6328 33.7365 23.6471 33.5987 23.6471C30.8216 23.648 28.0436 23.6429 25.2665 23.6539C24.964 23.6547 24.7713 23.5652 24.5938 23.3193C24.14 22.6898 23.6574 22.0815 23.1351 21.3971V21.3979Z" fill="white"/>
<path d="M10.8569 23.6463C11.4595 22.8605 11.9843 22.166 12.5252 21.4841C12.5852 21.4089 12.7407 21.3776 12.8515 21.3776C15.7486 21.3717 18.6457 21.3717 21.5437 21.3726C21.6079 21.3726 21.6713 21.3912 21.8192 21.414C21.4719 21.8685 21.1059 22.2513 20.8558 22.6983C20.4137 23.4891 19.8002 23.6953 18.9086 23.6708C16.4306 23.6024 13.9501 23.6463 11.4705 23.6455C11.3099 23.6455 11.1494 23.6455 10.8569 23.6455V23.6463Z" fill="white"/>
</g>
<defs>
<linearGradient id="paint0_linear_10557_10283" x1="37.5" y1="6.51563" x2="8.5" y2="38.5156" gradientUnits="userSpaceOnUse">
<stop stop-color="#F16D26"/>
<stop offset="0.475" stop-color="#E63F59"/>
<stop offset="1" stop-color="#932682"/>
</linearGradient>
<clipPath id="clip0_10557_10283">
<rect width="26" height="26" fill="white" transform="translate(9 9.5)"/>
</clipPath>
</defs>
</svg>
