<svg width="27" height="29" viewBox="0 0 27 29" fill="none" xmlns="http://www.w3.org/2000/svg">
<path d="M26.8199 14.3301C26.8199 15.9401 26.8199 17.5501 26.8199 19.1601C26.8199 20.8001 26.0999 22.0401 24.6999 22.8301C21.6899 24.5401 18.6399 26.2001 15.6199 27.8901C14.1699 28.7001 12.7199 28.7201 11.2599 27.9101C8.3699 26.3201 5.4699 24.7501 2.5799 23.1501C0.799898 22.1601 -0.0401019 20.6501 -0.000101911 18.5801C0.0598981 15.5701 0.0198981 12.5501 0.00989809 9.54011C0.00989809 7.68011 0.809898 6.32011 2.4499 5.41011C5.1199 3.94011 7.8099 2.48011 10.4399 0.930112C12.3499 -0.199888 14.1799 -0.359888 16.1599 0.800112C18.9699 2.45011 21.8499 3.97011 24.6799 5.59011C26.0699 6.39011 26.7799 7.66011 26.8199 9.27011C26.8599 10.9601 26.8199 12.6601 26.8199 14.3501V14.3301ZM24.7699 16.1301C24.4199 16.2701 24.2599 16.3101 24.1299 16.3901C21.9799 17.6201 19.8399 18.8601 17.6899 20.0901C17.0099 20.4801 16.3399 20.8801 15.6299 21.2301C15.1499 21.4701 14.6199 21.4501 14.3099 20.9401C13.9899 20.4201 14.1199 19.9101 14.5899 19.5001C14.7199 19.3901 14.8599 19.3101 14.9999 19.2301C17.6399 17.7001 20.2399 16.0901 22.9499 14.6801C24.3399 13.9601 25.0699 13.1101 24.7999 11.5101C24.6799 10.7701 24.9599 9.97011 24.5499 9.15011C24.1099 9.38011 23.7299 9.54011 23.3899 9.75011C20.8399 11.2801 18.2999 12.8201 15.7499 14.3401C15.3999 14.5501 14.9999 14.7901 14.6299 14.7901C14.2799 14.7901 13.7699 14.5601 13.6299 14.2801C13.4899 14.0201 13.6599 13.5101 13.8399 13.1901C13.9899 12.9301 14.3399 12.7701 14.6199 12.6001C16.4199 11.5201 18.2399 10.4501 20.0399 9.36011C21.1099 8.71011 22.1599 8.02011 23.2199 7.34011C23.0799 7.13011 23.0499 7.04011 22.9899 7.00011C20.2099 5.46011 17.4299 3.93011 14.6399 2.40011C13.7299 1.90011 12.8499 1.97011 11.9399 2.48011C9.1999 4.02011 6.4599 5.53011 3.6999 7.03011C2.5699 7.64011 2.0199 8.55011 2.0299 9.83011C2.0399 12.7201 2.0499 15.6101 2.0299 18.5101C2.0299 19.8501 2.5999 20.7701 3.7699 21.4001C6.5299 22.8901 9.2799 24.4001 12.0099 25.9501C12.9799 26.5001 13.8799 26.5001 14.8199 25.9801C17.6699 24.4001 20.5199 22.8101 23.3599 21.2101C24.1599 20.7601 24.6899 20.0701 24.7499 19.1401C24.8099 18.2001 24.7599 17.2601 24.7599 16.1101L24.7699 16.1301Z" fill="#2F2F2F"/>
</svg>
