<svg width="14" height="14" viewBox="0 0 14 14" fill="none" xmlns="http://www.w3.org/2000/svg">
<path fill-rule="evenodd" clip-rule="evenodd" d="M0.0522745 4.83795C0.0193059 4.86287 0 4.90133 0 4.94208V12.5965C0 12.9688 0.152182 13.3257 0.423068 13.5889C0.693954 13.8521 1.06135 14 1.44444 14H11.5556C11.9386 14 12.306 13.8521 12.5769 13.5889C12.8478 13.3257 13 12.9688 13 12.5965V4.94208C13 4.90133 12.9807 4.86287 12.9477 4.83795L6.58221 0.0274459C6.53378 -0.0091487 6.46622 -0.00914858 6.41779 0.027446L0.0522745 4.83795ZM5.06552 7.42124C4.99124 7.42124 4.93103 7.48015 4.93103 7.55282V12.1141C4.93103 12.1868 4.99124 12.2457 5.06552 12.2457H7.93448C8.00876 12.2457 8.06897 12.1868 8.06897 12.1141V7.55282C8.06897 7.48015 8.00876 7.42124 7.93448 7.42124H5.06552Z" fill="#2F2F2F"/>
</svg>
