<svg width="14" height="14" viewBox="0 0 14 14" fill="none" xmlns="http://www.w3.org/2000/svg">
<path d="M5.14576 4.25105C5.12436 4.26385 5.10022 4.27058 5.07567 4.27058H1.13625C0.834897 4.27058 0.545887 4.39586 0.332799 4.61887C0.119712 4.84188 0 5.14434 0 5.45972V7.838C0 8.15338 0.119712 8.45585 0.332799 8.67885C0.545887 8.90186 0.834897 9.02714 1.13625 9.02714H1.56135C1.64034 9.02714 1.70437 9.09525 1.70437 9.17927V11.4054C1.70437 11.5631 1.76423 11.7144 1.87077 11.8259C1.97732 11.9374 2.12182 12 2.2725 12H3.40875C3.55942 12 3.70393 11.9374 3.81047 11.8259C3.91701 11.7144 3.97687 11.5631 3.97687 11.4054V9.17927C3.97687 9.09525 4.0409 9.02714 4.11989 9.02714H5.07567C5.10022 9.02714 5.12436 9.03387 5.14576 9.04667L8.87687 11.278C8.97221 11.335 9.08999 11.2617 9.08999 11.1454V2.15234C9.08999 2.03601 8.97221 1.96273 8.87687 2.01974L5.14576 4.25105Z" fill="#2F2F2F"/>
<path fill-rule="evenodd" clip-rule="evenodd" d="M13.9811 3.08718C14.045 3.29117 13.9414 3.51166 13.7496 3.57966L10.031 4.89805C9.83919 4.96605 9.63189 4.8558 9.56796 4.65182C9.50403 4.44783 9.60768 4.22734 9.79947 4.15934L13.5181 2.84095C13.7099 2.77295 13.9172 2.88319 13.9811 3.08718Z" fill="#2F2F2F"/>
<path fill-rule="evenodd" clip-rule="evenodd" d="M9.54917 6.72614C9.54917 6.51111 9.71306 6.3368 9.91522 6.3368H13.6339C13.836 6.3368 13.9999 6.51111 13.9999 6.72614C13.9999 6.94116 13.836 7.11547 13.6339 7.11547H9.91522C9.71306 7.11547 9.54917 6.94116 9.54917 6.72614Z" fill="#2F2F2F"/>
<path fill-rule="evenodd" clip-rule="evenodd" d="M13.9811 10.3647C14.045 10.1607 13.9414 9.94025 13.7496 9.87225L10.031 8.55385C9.83919 8.48586 9.63189 8.5961 9.56796 8.80009C9.50403 9.00408 9.60768 9.22457 9.79947 9.29256L13.5181 10.611C13.7099 10.679 13.9172 10.5687 13.9811 10.3647Z" fill="#2F2F2F"/>
</svg>
