<svg width="14" height="14" viewBox="0 0 14 14" fill="none" xmlns="http://www.w3.org/2000/svg">
<path d="M3.93258 3.24211L5.89014 0.571053C6.02996 0.374561 6.19601 0.230263 6.38827 0.138158C6.58052 0.0460526 6.78152 0 6.99126 0C7.201 0 7.402 0.0460526 7.59426 0.138158C7.78652 0.230263 7.95256 0.374561 8.09239 0.571053L10.0499 3.24211L13.0212 4.29211C13.3242 4.39035 13.563 4.57149 13.7378 4.83553C13.9126 5.09956 14 5.39123 14 5.71053C14 5.85789 13.9796 6.00526 13.9388 6.15263C13.898 6.3 13.831 6.44123 13.7378 6.57632L11.8152 9.45L11.8851 12.4711C11.8968 12.9009 11.7628 13.2632 11.4831 13.5579C11.2035 13.8526 10.8772 14 10.5044 14C10.4811 14 10.3529 13.9816 10.1199 13.9447L6.99126 13.0237L3.86267 13.9447C3.80441 13.9693 3.74032 13.9846 3.67041 13.9908C3.6005 13.9969 3.53641 14 3.47815 14C3.10529 14 2.77903 13.8526 2.49938 13.5579C2.21973 13.2632 2.08573 12.9009 2.09738 12.4711L2.16729 9.43158L0.262172 6.57632C0.168955 6.44123 0.101956 6.3 0.0611735 6.15263C0.0203912 6.00526 0 5.85789 0 5.71053C0 5.40351 0.0844777 5.11798 0.253433 4.85395C0.422389 4.58991 0.658344 4.40263 0.961298 4.29211L3.93258 3.24211Z" fill="#2F2F2F"/>
</svg>
