<svg width="14" height="14" viewBox="0 0 14 14" fill="none" xmlns="http://www.w3.org/2000/svg">
<path d="M11.6713 8.86071C11.693 8.83625 11.7107 8.80857 11.7235 8.7785C11.956 8.22981 12.082 7.64307 12.082 7C12.082 6.62565 12.0343 6.26356 11.9492 5.92019C11.9103 5.76326 11.7511 5.67254 11.5918 5.70005C11.2225 5.76381 10.8399 5.79736 10.444 5.79736C8.50079 5.79736 6.75921 4.97617 5.59034 3.6742C5.43037 3.49602 5.12865 3.53114 5.01324 3.74095C4.37588 4.89955 3.35037 5.84526 2.09577 6.41576C1.99869 6.4599 1.92687 6.54818 1.91922 6.65456C1.911 6.76874 1.911 6.88583 1.911 7C1.911 8.27409 2.44716 9.496 3.40153 10.3969C4.35591 11.2978 5.65031 11.804 7 11.804C7.63567 11.804 8.25039 11.6903 8.817 11.4843C8.96743 11.4296 9.13807 11.4875 9.21503 11.6278C9.44878 12.0541 9.58495 12.3154 9.62997 12.4137C9.6433 12.4427 9.63027 12.4631 9.59974 12.4727C8.4741 12.8264 7.6008 13 7 13C5.306 13 3.689 12.3722 2.499 11.2423C1.82806 10.6089 1.31766 9.84648 1.00614 9.01702C0.958732 8.89078 0.839913 8.80396 0.705067 8.80396H0.3125C0.139911 8.80396 0 8.66405 0 8.49146V6.10986C0 5.93727 0.139911 5.79736 0.3125 5.79736H0.510531C0.657814 5.79736 0.784211 5.69422 0.821557 5.55175C1.5064 2.93921 4.01288 1 7 1C8.68 1 10.297 1.62775 11.494 2.75771C12.319 3.53033 12.8907 4.5021 13.1646 5.55159C13.2018 5.69417 13.3283 5.79736 13.4756 5.79736H13.6875C13.8601 5.79736 14 5.93727 14 6.10986V8.76432V8.77753C14 8.79213 13.9882 8.80396 13.9736 8.80396H13.9694C13.9621 8.80396 13.9549 8.80662 13.9494 8.81144L11.5687 10.8757C11.5032 10.9325 11.417 10.9595 11.3308 10.9503L8.03529 10.5981C7.87646 10.5812 7.756 10.4471 7.756 10.2874V9.77726C7.756 9.60467 7.89591 9.46476 8.0685 9.46476H10.9962C11.0857 9.46476 11.171 9.42636 11.2303 9.35931L11.6713 8.86071ZM5.089 6.84802C5.299 6.84802 5.502 6.92731 5.649 7.07269C5.796 7.21145 5.88 7.40308 5.88 7.60132C5.88 7.79956 5.796 7.99119 5.649 8.12996C5.502 8.26872 5.299 8.34802 5.089 8.34802C4.648 8.34802 4.291 8.01762 4.291 7.60132C4.291 7.18502 4.648 6.84802 5.089 6.84802ZM8.904 6.84802C9.345 6.84802 9.695 7.18502 9.695 7.60132C9.695 8.01762 9.345 8.34802 8.904 8.34802C8.463 8.34802 8.106 8.01762 8.106 7.60132C8.106 7.40153 8.19007 7.20993 8.33973 7.06866C8.48938 6.92738 8.69236 6.84802 8.904 6.84802Z" fill="#2F2F2F"/>
</svg>
