<svg width="18" height="19" viewBox="0 0 18 19" fill="none" xmlns="http://www.w3.org/2000/svg">
<g clip-path="url(#clip0_10446_25712)">
<path d="M16.7551 7.66927C16.5241 7.50756 16.3153 7.31322 16.135 7.09248C16.1483 6.78484 16.2077 6.48123 16.3107 6.19265C16.5045 5.50843 16.7456 4.65737 16.2809 3.99111C15.8126 3.31972 14.9569 3.29699 14.2696 3.27865C13.9802 3.29075 13.6912 3.25812 13.4111 3.18222C13.2571 2.93031 13.1393 2.65603 13.062 2.36819C12.8327 1.6869 12.5469 0.83877 11.7816 0.579528C11.0391 0.327986 10.3729 0.806136 9.78504 1.22672C9.54879 1.42326 9.28371 1.57873 9 1.6869C8.71594 1.57873 8.45086 1.42326 8.21461 1.22672C7.62715 0.805769 6.96059 0.329086 6.21809 0.579528C5.45309 0.83877 5.16762 1.68653 4.9377 2.36782C4.86035 2.6542 4.74398 2.92737 4.59246 3.17892C4.31156 3.25702 4.02082 3.29039 3.73008 3.27792C3.04277 3.29625 2.18707 3.31862 1.71879 3.99038C1.25367 4.657 1.4952 5.50843 1.68891 6.19228C1.79086 6.47939 1.85063 6.7808 1.86645 7.08661C1.6868 7.31065 1.47727 7.50683 1.24453 7.6689C0.690117 8.11038 0 8.65967 0 9.50963C0 10.3596 0.690117 10.9089 1.24488 11.35C1.47586 11.5117 1.68469 11.706 1.86504 11.9268C1.85168 12.2344 1.79227 12.538 1.68926 12.8266C1.49555 13.5108 1.25438 14.3623 1.71914 15.0281C2.18742 15.6995 3.04313 15.7223 3.73043 15.7406C4.01977 15.7285 4.30875 15.7611 4.58895 15.837C4.74293 16.089 4.8607 16.3632 4.93805 16.6511C5.16762 17.3324 5.45344 18.1805 6.21844 18.4397C6.35414 18.4859 6.49582 18.5098 6.63855 18.5098C7.21441 18.5098 7.74035 18.1328 8.21496 17.7929C8.45121 17.5964 8.71629 17.4409 9 17.3324C9.28406 17.4405 9.54914 17.596 9.78539 17.7925C10.3729 18.2135 11.0394 18.6898 11.7819 18.4397C12.5469 18.1805 12.8324 17.3327 13.0623 16.6514C13.1396 16.3651 13.256 16.0919 13.4075 15.8403C13.6884 15.7622 13.9792 15.7289 14.2699 15.7413C14.9572 15.723 15.8129 15.7006 16.2812 15.0289C16.7463 14.3623 16.5048 13.5108 16.3111 12.827C16.2091 12.5399 16.1494 12.2385 16.1336 11.9326C16.3132 11.7086 16.5227 11.5124 16.7555 11.3504C17.3099 10.9092 18 10.36 18 9.51C18 8.66003 17.3099 8.11075 16.7551 7.66963V7.66927Z" fill="#619DFF"/>
<path d="M12.5117 8.54524L8.57173 12.2904C8.26406 12.5829 7.76543 12.5829 7.45775 12.2904L5.48797 10.4177C5.17624 10.1291 5.16996 9.65472 5.47394 9.35839C5.77755 9.06206 6.27655 9.05609 6.58829 9.34505C6.59309 9.34961 6.59789 9.35382 6.60232 9.35839L8.01511 10.7013L11.3977 7.48598C11.7017 7.18965 12.2003 7.18368 12.512 7.47264C12.8238 7.76159 12.83 8.23557 12.5261 8.5319C12.5213 8.53647 12.5168 8.54103 12.512 8.54524H12.5117Z" fill="white"/>
</g>
<defs>
<clipPath id="clip0_10446_25712">
<rect width="18" height="18" fill="white" transform="translate(0 0.509766)"/>
</clipPath>
</defs>
</svg>
