<svg width="18" height="18" viewBox="0 0 18 18" fill="none" xmlns="http://www.w3.org/2000/svg">
<g clip-path="url(#clip0_10473_15019)">
<path d="M16.7551 7.1595C16.5241 6.9978 16.3153 6.80346 16.135 6.58272C16.1483 6.27507 16.2077 5.97146 16.3107 5.68288C16.5045 4.99866 16.7456 4.1476 16.2809 3.48134C15.8126 2.80995 14.9569 2.78722 14.2696 2.76889C13.9802 2.78099 13.6912 2.74835 13.4111 2.67245C13.2571 2.42054 13.1393 2.14627 13.062 1.85842C12.8327 1.17713 12.5469 0.329004 11.7816 0.0697624C11.0391 -0.181779 10.3729 0.29637 9.78504 0.716951C9.54879 0.913491 9.28371 1.06896 9 1.17713C8.71594 1.06896 8.45086 0.913491 8.21461 0.716951C7.62715 0.296003 6.96059 -0.180679 6.21809 0.0697624C5.45309 0.329004 5.16762 1.17677 4.9377 1.85806C4.86035 2.14443 4.74398 2.41761 4.59246 2.66915C4.31156 2.74725 4.02082 2.78062 3.73008 2.76815C3.04277 2.78649 2.18707 2.80885 1.71879 3.48061C1.25367 4.14723 1.4952 4.99866 1.68891 5.68252C1.79086 5.96963 1.85063 6.27104 1.86645 6.57685C1.6868 6.80089 1.47727 6.99706 1.24453 7.15913C0.690117 7.60062 0 8.1499 0 8.99986C0 9.84982 0.690117 10.3991 1.24488 10.8402C1.47586 11.0019 1.68469 11.1963 1.86504 11.417C1.85168 11.7247 1.79227 12.0283 1.68926 12.3168C1.49555 13.0011 1.25438 13.8525 1.71914 14.5184C2.18742 15.1898 3.04313 15.2125 3.73043 15.2308C4.01977 15.2187 4.30875 15.2514 4.58895 15.3273C4.74293 15.5792 4.8607 15.8535 4.93805 16.1413C5.16762 16.8226 5.45344 17.6707 6.21844 17.93C6.35414 17.9762 6.49582 18 6.63855 18C7.21441 18 7.74035 17.6231 8.21496 17.2831C8.45121 17.0866 8.71629 16.9311 9 16.8226C9.28406 16.9308 9.54914 17.0862 9.78539 17.2828C10.3729 17.7037 11.0394 18.18 11.7819 17.93C12.5469 17.6707 12.8324 16.823 13.0623 16.1417C13.1396 15.8553 13.256 15.5821 13.4075 15.3306C13.6884 15.2525 13.9792 15.2191 14.2699 15.2316C14.9572 15.2132 15.8129 15.1909 16.2812 14.5191C16.7463 13.8525 16.5048 13.0011 16.3111 12.3172C16.2091 12.0301 16.1494 11.7287 16.1336 11.4229C16.3132 11.1988 16.5227 11.0027 16.7555 10.8406C17.3099 10.3995 18 9.85019 18 9.00023C18 8.15027 17.3099 7.60098 16.7551 7.15987V7.1595Z" fill="#E8615D"/>
<path d="M12.5117 8.03548L8.57173 11.7807C8.26406 12.0731 7.76543 12.0731 7.45775 11.7807L5.48797 9.90789C5.17624 9.61928 5.16996 9.14495 5.47394 8.84862C5.77755 8.5523 6.27655 8.54633 6.58829 8.83528C6.59309 8.83985 6.59789 8.84406 6.60232 8.84862L8.01511 10.1916L11.3977 6.97621C11.7017 6.67988 12.2003 6.67392 12.512 6.96287C12.8238 7.25182 12.83 7.72581 12.5261 8.02214C12.5213 8.0267 12.5168 8.03126 12.512 8.03548H12.5117Z" fill="white"/>
</g>
<defs>
<clipPath id="clip0_10473_15019">
<rect width="18" height="18" fill="white"/>
</clipPath>
</defs>
</svg>
